%TF.GenerationSoftware,KiCad,Pcbnew,9.0.3*%
%TF.CreationDate,2026-03-25T12:23:46-04:00*%
%TF.ProjectId,copis_electronics,636f7069-735f-4656-9c65-6374726f6e69,rev?*%
%TF.SameCoordinates,Original*%
%TF.FileFunction,Soldermask,Top*%
%TF.FilePolarity,Negative*%
%FSLAX46Y46*%
G04 Gerber Fmt 4.6, Leading zero omitted, Abs format (unit mm)*
G04 Created by KiCad (PCBNEW 9.0.3) date 2026-03-25 12:23:46*
%MOMM*%
%LPD*%
G01*
G04 APERTURE LIST*
G04 Aperture macros list*
%AMRoundRect*
0 Rectangle with rounded corners*
0 $1 Rounding radius*
0 $2 $3 $4 $5 $6 $7 $8 $9 X,Y pos of 4 corners*
0 Add a 4 corners polygon primitive as box body*
4,1,4,$2,$3,$4,$5,$6,$7,$8,$9,$2,$3,0*
0 Add four circle primitives for the rounded corners*
1,1,$1+$1,$2,$3*
1,1,$1+$1,$4,$5*
1,1,$1+$1,$6,$7*
1,1,$1+$1,$8,$9*
0 Add four rect primitives between the rounded corners*
20,1,$1+$1,$2,$3,$4,$5,0*
20,1,$1+$1,$4,$5,$6,$7,0*
20,1,$1+$1,$6,$7,$8,$9,0*
20,1,$1+$1,$8,$9,$2,$3,0*%
%AMRotRect*
0 Rectangle, with rotation*
0 The origin of the aperture is its center*
0 $1 length*
0 $2 width*
0 $3 Rotation angle, in degrees counterclockwise*
0 Add horizontal line*
21,1,$1,$2,0,0,$3*%
G04 Aperture macros list end*
%ADD10C,1.700000*%
%ADD11O,1.700000X1.700000*%
%ADD12RoundRect,0.250000X-0.350000X-0.450000X0.350000X-0.450000X0.350000X0.450000X-0.350000X0.450000X0*%
%ADD13O,1.740000X2.190000*%
%ADD14RoundRect,0.250000X0.620000X0.845000X-0.620000X0.845000X-0.620000X-0.845000X0.620000X-0.845000X0*%
%ADD15RotRect,1.500000X0.550000X45.000000*%
%ADD16RotRect,1.500000X0.550000X135.000000*%
%ADD17C,2.600000*%
%ADD18R,2.600000X2.600000*%
%ADD19RoundRect,0.250000X0.450000X-0.350000X0.450000X0.350000X-0.450000X0.350000X-0.450000X-0.350000X0*%
%ADD20RoundRect,0.250000X0.450000X-0.325000X0.450000X0.325000X-0.450000X0.325000X-0.450000X-0.325000X0*%
%ADD21R,1.600000X1.600000*%
%ADD22O,1.600000X1.600000*%
%ADD23R,1.700000X1.700000*%
%ADD24RoundRect,0.250000X-0.325000X-0.450000X0.325000X-0.450000X0.325000X0.450000X-0.325000X0.450000X0*%
%ADD25RoundRect,0.250000X-0.450000X0.350000X-0.450000X-0.350000X0.450000X-0.350000X0.450000X0.350000X0*%
%ADD26C,2.000000*%
%ADD27R,2.000000X2.000000*%
%ADD28C,1.600000*%
%ADD29C,1.500000*%
%ADD30O,2.190000X1.740000*%
%ADD31RoundRect,0.250000X-0.845000X0.620000X-0.845000X-0.620000X0.845000X-0.620000X0.845000X0.620000X0*%
%ADD32RoundRect,0.250000X-0.450000X0.325000X-0.450000X-0.325000X0.450000X-0.325000X0.450000X0.325000X0*%
%ADD33RoundRect,0.250001X-0.462499X-0.624999X0.462499X-0.624999X0.462499X0.624999X-0.462499X0.624999X0*%
%ADD34R,1.200000X0.900000*%
%ADD35RoundRect,0.250000X0.350000X0.450000X-0.350000X0.450000X-0.350000X-0.450000X0.350000X-0.450000X0*%
%ADD36RoundRect,0.150000X0.150000X-0.587500X0.150000X0.587500X-0.150000X0.587500X-0.150000X-0.587500X0*%
%ADD37O,1.600000X2.400000*%
%ADD38R,1.600000X2.400000*%
%ADD39RoundRect,0.250001X-2.474999X0.799999X-2.474999X-0.799999X2.474999X-0.799999X2.474999X0.799999X0*%
%ADD40RoundRect,0.250000X-0.400000X-1.450000X0.400000X-1.450000X0.400000X1.450000X-0.400000X1.450000X0*%
G04 APERTURE END LIST*
D10*
%TO.C,J6*%
X191770000Y-58420000D03*
X194310000Y-58420000D03*
X196850000Y-58420000D03*
X199390000Y-58420000D03*
X201930000Y-58420000D03*
X204470000Y-58420000D03*
X207010000Y-58420000D03*
X209550000Y-58420000D03*
X191770000Y-71120000D03*
X194310000Y-71120000D03*
X196850000Y-71120000D03*
X199390000Y-71120000D03*
X201930000Y-71120000D03*
X204470000Y-71120000D03*
X207010000Y-71120000D03*
X209550000Y-71120000D03*
%TD*%
D11*
%TO.C,JP1*%
X125730000Y-63500000D03*
X125730000Y-66040000D03*
%TD*%
%TO.C,JP2*%
X128270000Y-63500000D03*
X128270000Y-66040000D03*
%TD*%
%TO.C,JP4*%
X171450000Y-63500000D03*
X171450000Y-66040000D03*
%TD*%
%TO.C,JP5*%
X173990000Y-63500000D03*
X173990000Y-66040000D03*
%TD*%
%TO.C,JP7*%
X148590000Y-63500000D03*
X148590000Y-66040000D03*
%TD*%
%TO.C,JP8*%
X151130000Y-63500000D03*
X151130000Y-66040000D03*
%TD*%
%TO.C,JP9*%
X153670000Y-63500000D03*
X153670000Y-66040000D03*
%TD*%
%TO.C,JP13*%
X194310000Y-63500000D03*
X194310000Y-66040000D03*
%TD*%
%TO.C,JP14*%
X196850000Y-63500000D03*
X196850000Y-66040000D03*
%TD*%
%TO.C,JP15*%
X199390000Y-63500000D03*
X199390000Y-66040000D03*
%TD*%
%TO.C,P18*%
X176530000Y-51435000D03*
X179070000Y-51435000D03*
X181610000Y-51435000D03*
X184150000Y-51435000D03*
%TD*%
%TO.C,JP6*%
X176530000Y-63500000D03*
X176530000Y-66040000D03*
%TD*%
D12*
%TO.C,R3*%
X135398000Y-75429000D03*
X137398000Y-75429000D03*
%TD*%
D13*
%TO.C,P4*%
X175006000Y-106680000D03*
D14*
X172466000Y-106680000D03*
D13*
X169926000Y-106680000D03*
%TD*%
%TO.C,P1*%
X164846000Y-106680000D03*
X162306000Y-106680000D03*
X159766000Y-106680000D03*
%TD*%
%TO.C,P7*%
X205460600Y-106680000D03*
D14*
X202920600Y-106680000D03*
D13*
X200380600Y-106680000D03*
%TD*%
D15*
%TO.C,U5*%
X142975664Y-87562082D03*
X143541350Y-88127767D03*
X144107035Y-88693452D03*
X144672720Y-89259138D03*
X145238406Y-89824823D03*
X145804091Y-90390509D03*
X146369777Y-90956194D03*
X146935462Y-91521880D03*
X147501148Y-92087565D03*
X148066833Y-92653250D03*
X148632518Y-93218936D03*
D16*
X151036682Y-93218936D03*
X151602367Y-92653250D03*
X152168052Y-92087565D03*
X152733738Y-91521880D03*
X153299423Y-90956194D03*
X153865109Y-90390509D03*
X154430794Y-89824823D03*
X154996480Y-89259138D03*
X155562165Y-88693452D03*
X156127850Y-88127767D03*
X156693536Y-87562082D03*
D15*
X156693536Y-85157918D03*
X156127850Y-84592233D03*
X155562165Y-84026548D03*
X154996480Y-83460862D03*
X154430794Y-82895177D03*
X153865109Y-82329491D03*
X153299423Y-81763806D03*
X152733738Y-81198120D03*
X152168052Y-80632435D03*
X151602367Y-80066750D03*
X151036682Y-79501064D03*
D16*
X148632518Y-79501064D03*
X148066833Y-80066750D03*
X147501148Y-80632435D03*
X146935462Y-81198120D03*
X146369777Y-81763806D03*
X145804091Y-82329491D03*
X145238406Y-82895177D03*
X144672720Y-83460862D03*
X144107035Y-84026548D03*
X143541350Y-84592233D03*
X142975664Y-85157918D03*
%TD*%
D17*
%TO.C,P13*%
X77470000Y-78740000D03*
D18*
X77470000Y-83740000D03*
D17*
X77470000Y-88740000D03*
D18*
X77470000Y-93740000D03*
%TD*%
D11*
%TO.C,P17*%
X153670000Y-51435000D03*
X156210000Y-51435000D03*
X158750000Y-51435000D03*
X161290000Y-51435000D03*
%TD*%
%TO.C,P16*%
X130810000Y-51435000D03*
X133350000Y-51435000D03*
X135890000Y-51435000D03*
X138430000Y-51435000D03*
%TD*%
D19*
%TO.C,R6*%
X110490000Y-92710000D03*
X110490000Y-90710000D03*
%TD*%
D20*
%TO.C,C1*%
X155346400Y-102320200D03*
X155346400Y-100270200D03*
%TD*%
D21*
%TO.C,D3*%
X113030000Y-88265000D03*
D22*
X113030000Y-98425000D03*
%TD*%
D23*
%TO.C,P2*%
X93980000Y-106680000D03*
D11*
X96520000Y-106680000D03*
X99060000Y-106680000D03*
X101600000Y-106680000D03*
X104140000Y-106680000D03*
X106680000Y-106680000D03*
%TD*%
D21*
%TO.C,D2*%
X107950000Y-88265000D03*
D22*
X107950000Y-98425000D03*
%TD*%
D24*
%TO.C,C10*%
X138675000Y-96520000D03*
X140725000Y-96520000D03*
%TD*%
D14*
%TO.C,P6*%
X195300600Y-106680000D03*
X192760600Y-106680000D03*
D13*
X190220600Y-106680000D03*
%TD*%
D20*
%TO.C,C12*%
X161798000Y-94742000D03*
X161798000Y-92692000D03*
%TD*%
D23*
%TO.C,P3*%
X126365000Y-88900000D03*
D10*
X126365000Y-86360000D03*
X128905000Y-88900000D03*
X128905000Y-86360000D03*
X131445000Y-88900000D03*
X131445000Y-86360000D03*
%TD*%
D25*
%TO.C,R2*%
X90678000Y-79026000D03*
X90678000Y-81026000D03*
%TD*%
D11*
%TO.C,JP3*%
X130810000Y-63500000D03*
X130810000Y-66040000D03*
%TD*%
%TO.C,P21*%
X199390000Y-51435000D03*
X201930000Y-51435000D03*
X204470000Y-51435000D03*
X207010000Y-51435000D03*
%TD*%
D10*
%TO.C,J1*%
X123190000Y-58420000D03*
X125730000Y-58420000D03*
X128270000Y-58420000D03*
X130810000Y-58420000D03*
X133350000Y-58420000D03*
X135890000Y-58420000D03*
X138430000Y-58420000D03*
X140970000Y-58420000D03*
X123190000Y-71120000D03*
X125730000Y-71120000D03*
X128270000Y-71120000D03*
X130810000Y-71120000D03*
X133350000Y-71120000D03*
X135890000Y-71120000D03*
X138430000Y-71120000D03*
X140970000Y-71120000D03*
%TD*%
%TO.C,J2*%
X146050000Y-58420000D03*
X148590000Y-58420000D03*
X151130000Y-58420000D03*
X153670000Y-58420000D03*
X156210000Y-58420000D03*
X158750000Y-58420000D03*
X161290000Y-58420000D03*
X163830000Y-58420000D03*
X146050000Y-71120000D03*
X148590000Y-71120000D03*
X151130000Y-71120000D03*
X153670000Y-71120000D03*
X156210000Y-71120000D03*
X158750000Y-71120000D03*
X161290000Y-71120000D03*
X163830000Y-71120000D03*
%TD*%
%TO.C,J3*%
X168910000Y-58420000D03*
X171450000Y-58420000D03*
X173990000Y-58420000D03*
X176530000Y-58420000D03*
X179070000Y-58420000D03*
X181610000Y-58420000D03*
X184150000Y-58420000D03*
X186690000Y-58420000D03*
X168910000Y-71120000D03*
X171450000Y-71120000D03*
X173990000Y-71120000D03*
X176530000Y-71120000D03*
X179070000Y-71120000D03*
X181610000Y-71120000D03*
X184150000Y-71120000D03*
X186690000Y-71120000D03*
%TD*%
D26*
%TO.C,C5*%
X120650000Y-50800000D03*
D27*
X125650000Y-50800000D03*
%TD*%
D26*
%TO.C,SW1*%
X80990000Y-100838000D03*
X80990000Y-107338000D03*
D23*
X76490000Y-100838000D03*
X76490000Y-107338000D03*
%TD*%
D26*
%TO.C,C6*%
X143510000Y-50800000D03*
D27*
X148510000Y-50800000D03*
%TD*%
D26*
%TO.C,C7*%
X189230000Y-50800000D03*
D27*
X194230000Y-50800000D03*
%TD*%
D26*
%TO.C,C8*%
X166370000Y-50800000D03*
D27*
X171370000Y-50800000D03*
%TD*%
D28*
%TO.C,C11*%
X88860000Y-86360000D03*
D23*
X86360000Y-86360000D03*
%TD*%
D29*
%TO.C,Y1*%
X150151000Y-102616000D03*
X145271000Y-102616000D03*
%TD*%
D19*
%TO.C,R7*%
X164846000Y-102362000D03*
X164846000Y-100362000D03*
%TD*%
D30*
%TO.C,P9*%
X208260000Y-81534000D03*
X208260000Y-84074000D03*
D31*
X208260000Y-86614000D03*
D30*
X208260000Y-89154000D03*
%TD*%
D11*
%TO.C,JP16*%
X102870000Y-63500000D03*
X102870000Y-66040000D03*
%TD*%
%TO.C,JP17*%
X105410000Y-63500000D03*
X105410000Y-66040000D03*
%TD*%
%TO.C,JP18*%
X107950000Y-63500000D03*
X107950000Y-66040000D03*
%TD*%
%TO.C,JP11*%
X82550000Y-63500000D03*
X82550000Y-66040000D03*
%TD*%
%TO.C,JP12*%
X85090000Y-63500000D03*
X85090000Y-66040000D03*
%TD*%
D10*
%TO.C,J4*%
X77470000Y-58420000D03*
X80010000Y-58420000D03*
X82550000Y-58420000D03*
X85090000Y-58420000D03*
X87630000Y-58420000D03*
X90170000Y-58420000D03*
X92710000Y-58420000D03*
X95250000Y-58420000D03*
X77470000Y-71120000D03*
X80010000Y-71120000D03*
X82550000Y-71120000D03*
X85090000Y-71120000D03*
X87630000Y-71120000D03*
X90170000Y-71120000D03*
X92710000Y-71120000D03*
X95250000Y-71120000D03*
%TD*%
D11*
%TO.C,JP10*%
X80010000Y-63500000D03*
X80010000Y-66040000D03*
%TD*%
D26*
%TO.C,C9*%
X74930000Y-50800000D03*
D27*
X79930000Y-50800000D03*
%TD*%
D26*
%TO.C,C4*%
X97790000Y-50800000D03*
D27*
X102790000Y-50800000D03*
%TD*%
D11*
%TO.C,P20*%
X107950000Y-51435000D03*
X110490000Y-51435000D03*
X113030000Y-51435000D03*
X115570000Y-51435000D03*
%TD*%
%TO.C,P19*%
X85090000Y-51435000D03*
X87630000Y-51435000D03*
X90170000Y-51435000D03*
X92710000Y-51435000D03*
%TD*%
D10*
%TO.C,J5*%
X100330000Y-58420000D03*
X102870000Y-58420000D03*
X105410000Y-58420000D03*
X107950000Y-58420000D03*
X110490000Y-58420000D03*
X113030000Y-58420000D03*
X115570000Y-58420000D03*
X118110000Y-58420000D03*
X100330000Y-71120000D03*
X102870000Y-71120000D03*
X105410000Y-71120000D03*
X107950000Y-71120000D03*
X110490000Y-71120000D03*
X113030000Y-71120000D03*
X115570000Y-71120000D03*
X118110000Y-71120000D03*
%TD*%
D32*
%TO.C,C13*%
X140970000Y-76944000D03*
X140970000Y-78994000D03*
%TD*%
D30*
%TO.C,P8*%
X199390000Y-81534000D03*
X199390000Y-84074000D03*
D31*
X199390000Y-86614000D03*
D30*
X199390000Y-89154000D03*
%TD*%
D11*
%TO.C,U1*%
X179075000Y-86060200D03*
D23*
X179075000Y-83520200D03*
D11*
X181615000Y-86060200D03*
X181615000Y-83520200D03*
X184155000Y-86060200D03*
X184155000Y-83520200D03*
X186695000Y-86060200D03*
X186695000Y-83520200D03*
X189235000Y-86060200D03*
D23*
X189235000Y-83520200D03*
%TD*%
D33*
%TO.C,D1*%
X88682500Y-75565000D03*
X91657500Y-75565000D03*
%TD*%
D13*
%TO.C,P5*%
X185166000Y-106680000D03*
D14*
X182626000Y-106680000D03*
D13*
X180086000Y-106680000D03*
%TD*%
D34*
%TO.C,D4*%
X161036000Y-99188000D03*
X161036000Y-102488000D03*
%TD*%
D19*
%TO.C,R10*%
X195326000Y-102346000D03*
X195326000Y-100346000D03*
%TD*%
%TO.C,R11*%
X205486000Y-102362000D03*
X205486000Y-100362000D03*
%TD*%
D34*
%TO.C,D8*%
X201676000Y-99062000D03*
X201676000Y-102362000D03*
%TD*%
%TO.C,D5*%
X171196000Y-99188000D03*
X171196000Y-102488000D03*
%TD*%
%TO.C,D7*%
X191516000Y-99188000D03*
X191516000Y-102488000D03*
%TD*%
%TO.C,D6*%
X181356000Y-99188000D03*
X181356000Y-102488000D03*
%TD*%
D19*
%TO.C,R9*%
X185166000Y-102362000D03*
X185166000Y-100362000D03*
%TD*%
%TO.C,R8*%
X175006000Y-102362000D03*
X175006000Y-100362000D03*
%TD*%
D35*
%TO.C,R12*%
X164560000Y-86360000D03*
X162560000Y-86360000D03*
%TD*%
D24*
%TO.C,C2*%
X138675000Y-100330000D03*
X140725000Y-100330000D03*
%TD*%
D36*
%TO.C,Q1*%
X169230000Y-85597500D03*
X171130000Y-85597500D03*
X170180000Y-83722500D03*
%TD*%
D11*
%TO.C,JP20*%
X201930000Y-93472000D03*
X199390000Y-93472000D03*
%TD*%
%TO.C,P22*%
X135890000Y-106680000D03*
D23*
X133350000Y-106680000D03*
D11*
X130810000Y-106680000D03*
%TD*%
D19*
%TO.C,R5*%
X105410000Y-92710000D03*
X105410000Y-90710000D03*
%TD*%
D20*
%TO.C,C3*%
X158242000Y-81035000D03*
X158242000Y-78985000D03*
%TD*%
D35*
%TO.C,R4*%
X163417000Y-82550000D03*
X161417000Y-82550000D03*
%TD*%
D37*
%TO.C,U3*%
X113030000Y-77216000D03*
D38*
X110490000Y-77216000D03*
D37*
X110490000Y-84836000D03*
X113030000Y-84836000D03*
%TD*%
%TO.C,U2*%
X107955000Y-77216000D03*
D38*
X105415000Y-77216000D03*
D37*
X105415000Y-84836000D03*
X107955000Y-84836000D03*
%TD*%
D11*
%TO.C,JP19*%
X92847400Y-101600000D03*
X90307400Y-101600000D03*
X87767400Y-101600000D03*
%TD*%
D19*
%TO.C,R1*%
X135890000Y-96520000D03*
X135890000Y-94520000D03*
%TD*%
D12*
%TO.C,R14*%
X117602000Y-77978000D03*
X119602000Y-77978000D03*
%TD*%
D21*
%TO.C,D9*%
X97790000Y-88265000D03*
D22*
X97790000Y-98425000D03*
%TD*%
D21*
%TO.C,D10*%
X102870000Y-88265000D03*
D22*
X102870000Y-98425000D03*
%TD*%
D19*
%TO.C,R15*%
X95250000Y-92694000D03*
X95250000Y-90694000D03*
%TD*%
%TO.C,R16*%
X100330000Y-92710000D03*
X100330000Y-90710000D03*
%TD*%
D37*
%TO.C,U4*%
X97795000Y-77201000D03*
D38*
X95255000Y-77201000D03*
D37*
X95255000Y-84821000D03*
X97795000Y-84821000D03*
%TD*%
D39*
%TO.C,F2*%
X72212200Y-61422000D03*
X72212200Y-68372000D03*
%TD*%
D11*
%TO.C,P12*%
X120650000Y-106680000D03*
D23*
X118110000Y-106680000D03*
D11*
X115570000Y-106680000D03*
%TD*%
D40*
%TO.C,F1*%
X86040000Y-94335600D03*
X90490000Y-94335600D03*
%TD*%
D37*
%TO.C,U6*%
X102875000Y-77216000D03*
D38*
X100335000Y-77216000D03*
D37*
X100335000Y-84836000D03*
X102875000Y-84836000D03*
%TD*%
D12*
%TO.C,R13*%
X117602000Y-81026000D03*
X119602000Y-81026000D03*
%TD*%
M02*
