%TF.GenerationSoftware,KiCad,Pcbnew,9.0.3*%
%TF.CreationDate,2026-03-25T12:23:45-04:00*%
%TF.ProjectId,copis_electronics,636f7069-735f-4656-9c65-6374726f6e69,rev?*%
%TF.SameCoordinates,Original*%
%TF.FileFunction,Legend,Bot*%
%TF.FilePolarity,Positive*%
%FSLAX46Y46*%
G04 Gerber Fmt 4.6, Leading zero omitted, Abs format (unit mm)*
G04 Created by KiCad (PCBNEW 9.0.3) date 2026-03-25 12:23:45*
%MOMM*%
%LPD*%
G01*
G04 APERTURE LIST*
G04 Aperture macros list*
%AMRoundRect*
0 Rectangle with rounded corners*
0 $1 Rounding radius*
0 $2 $3 $4 $5 $6 $7 $8 $9 X,Y pos of 4 corners*
0 Add a 4 corners polygon primitive as box body*
4,1,4,$2,$3,$4,$5,$6,$7,$8,$9,$2,$3,0*
0 Add four circle primitives for the rounded corners*
1,1,$1+$1,$2,$3*
1,1,$1+$1,$4,$5*
1,1,$1+$1,$6,$7*
1,1,$1+$1,$8,$9*
0 Add four rect primitives between the rounded corners*
20,1,$1+$1,$2,$3,$4,$5,0*
20,1,$1+$1,$4,$5,$6,$7,0*
20,1,$1+$1,$6,$7,$8,$9,0*
20,1,$1+$1,$8,$9,$2,$3,0*%
G04 Aperture macros list end*
%ADD10C,1.700000*%
%ADD11O,1.700000X1.700000*%
%ADD12O,1.740000X2.190000*%
%ADD13RoundRect,0.250000X0.620000X0.845000X-0.620000X0.845000X-0.620000X-0.845000X0.620000X-0.845000X0*%
%ADD14C,2.600000*%
%ADD15R,2.600000X2.600000*%
%ADD16R,1.600000X1.600000*%
%ADD17O,1.600000X1.600000*%
%ADD18R,1.700000X1.700000*%
%ADD19C,2.000000*%
%ADD20R,2.000000X2.000000*%
%ADD21C,1.600000*%
%ADD22C,1.500000*%
%ADD23O,2.190000X1.740000*%
%ADD24RoundRect,0.250000X-0.845000X0.620000X-0.845000X-0.620000X0.845000X-0.620000X0.845000X0.620000X0*%
%ADD25O,1.600000X2.400000*%
%ADD26R,1.600000X2.400000*%
G04 APERTURE END LIST*
%LPC*%
D10*
%TO.C,J6*%
X191770000Y-58420000D03*
X194310000Y-58420000D03*
X196850000Y-58420000D03*
X199390000Y-58420000D03*
X201930000Y-58420000D03*
X204470000Y-58420000D03*
X207010000Y-58420000D03*
X209550000Y-58420000D03*
X191770000Y-71120000D03*
X194310000Y-71120000D03*
X196850000Y-71120000D03*
X199390000Y-71120000D03*
X201930000Y-71120000D03*
X204470000Y-71120000D03*
X207010000Y-71120000D03*
X209550000Y-71120000D03*
%TD*%
D11*
%TO.C,JP1*%
X125730000Y-63500000D03*
X125730000Y-66040000D03*
%TD*%
%TO.C,JP2*%
X128270000Y-63500000D03*
X128270000Y-66040000D03*
%TD*%
%TO.C,JP4*%
X171450000Y-63500000D03*
X171450000Y-66040000D03*
%TD*%
%TO.C,JP5*%
X173990000Y-63500000D03*
X173990000Y-66040000D03*
%TD*%
%TO.C,JP7*%
X148590000Y-63500000D03*
X148590000Y-66040000D03*
%TD*%
%TO.C,JP8*%
X151130000Y-63500000D03*
X151130000Y-66040000D03*
%TD*%
%TO.C,JP9*%
X153670000Y-63500000D03*
X153670000Y-66040000D03*
%TD*%
%TO.C,JP13*%
X194310000Y-63500000D03*
X194310000Y-66040000D03*
%TD*%
%TO.C,JP14*%
X196850000Y-63500000D03*
X196850000Y-66040000D03*
%TD*%
%TO.C,JP15*%
X199390000Y-63500000D03*
X199390000Y-66040000D03*
%TD*%
%TO.C,P18*%
X176530000Y-51435000D03*
X179070000Y-51435000D03*
X181610000Y-51435000D03*
X184150000Y-51435000D03*
%TD*%
%TO.C,JP6*%
X176530000Y-63500000D03*
X176530000Y-66040000D03*
%TD*%
D12*
%TO.C,P4*%
X175006000Y-106680000D03*
D13*
X172466000Y-106680000D03*
D12*
X169926000Y-106680000D03*
%TD*%
%TO.C,P1*%
X164846000Y-106680000D03*
X162306000Y-106680000D03*
X159766000Y-106680000D03*
%TD*%
%TO.C,P7*%
X205460600Y-106680000D03*
D13*
X202920600Y-106680000D03*
D12*
X200380600Y-106680000D03*
%TD*%
D14*
%TO.C,P13*%
X77470000Y-78740000D03*
D15*
X77470000Y-83740000D03*
D14*
X77470000Y-88740000D03*
D15*
X77470000Y-93740000D03*
%TD*%
D11*
%TO.C,P17*%
X153670000Y-51435000D03*
X156210000Y-51435000D03*
X158750000Y-51435000D03*
X161290000Y-51435000D03*
%TD*%
%TO.C,P16*%
X130810000Y-51435000D03*
X133350000Y-51435000D03*
X135890000Y-51435000D03*
X138430000Y-51435000D03*
%TD*%
D16*
%TO.C,D3*%
X113030000Y-88265000D03*
D17*
X113030000Y-98425000D03*
%TD*%
D18*
%TO.C,P2*%
X93980000Y-106680000D03*
D11*
X96520000Y-106680000D03*
X99060000Y-106680000D03*
X101600000Y-106680000D03*
X104140000Y-106680000D03*
X106680000Y-106680000D03*
%TD*%
D16*
%TO.C,D2*%
X107950000Y-88265000D03*
D17*
X107950000Y-98425000D03*
%TD*%
D13*
%TO.C,P6*%
X195300600Y-106680000D03*
X192760600Y-106680000D03*
D12*
X190220600Y-106680000D03*
%TD*%
D18*
%TO.C,P3*%
X126365000Y-88900000D03*
D10*
X126365000Y-86360000D03*
X128905000Y-88900000D03*
X128905000Y-86360000D03*
X131445000Y-88900000D03*
X131445000Y-86360000D03*
%TD*%
D11*
%TO.C,JP3*%
X130810000Y-63500000D03*
X130810000Y-66040000D03*
%TD*%
%TO.C,P21*%
X199390000Y-51435000D03*
X201930000Y-51435000D03*
X204470000Y-51435000D03*
X207010000Y-51435000D03*
%TD*%
D10*
%TO.C,J1*%
X123190000Y-58420000D03*
X125730000Y-58420000D03*
X128270000Y-58420000D03*
X130810000Y-58420000D03*
X133350000Y-58420000D03*
X135890000Y-58420000D03*
X138430000Y-58420000D03*
X140970000Y-58420000D03*
X123190000Y-71120000D03*
X125730000Y-71120000D03*
X128270000Y-71120000D03*
X130810000Y-71120000D03*
X133350000Y-71120000D03*
X135890000Y-71120000D03*
X138430000Y-71120000D03*
X140970000Y-71120000D03*
%TD*%
%TO.C,J2*%
X146050000Y-58420000D03*
X148590000Y-58420000D03*
X151130000Y-58420000D03*
X153670000Y-58420000D03*
X156210000Y-58420000D03*
X158750000Y-58420000D03*
X161290000Y-58420000D03*
X163830000Y-58420000D03*
X146050000Y-71120000D03*
X148590000Y-71120000D03*
X151130000Y-71120000D03*
X153670000Y-71120000D03*
X156210000Y-71120000D03*
X158750000Y-71120000D03*
X161290000Y-71120000D03*
X163830000Y-71120000D03*
%TD*%
%TO.C,J3*%
X168910000Y-58420000D03*
X171450000Y-58420000D03*
X173990000Y-58420000D03*
X176530000Y-58420000D03*
X179070000Y-58420000D03*
X181610000Y-58420000D03*
X184150000Y-58420000D03*
X186690000Y-58420000D03*
X168910000Y-71120000D03*
X171450000Y-71120000D03*
X173990000Y-71120000D03*
X176530000Y-71120000D03*
X179070000Y-71120000D03*
X181610000Y-71120000D03*
X184150000Y-71120000D03*
X186690000Y-71120000D03*
%TD*%
D19*
%TO.C,C5*%
X120650000Y-50800000D03*
D20*
X125650000Y-50800000D03*
%TD*%
D19*
%TO.C,SW1*%
X80990000Y-100838000D03*
X80990000Y-107338000D03*
D18*
X76490000Y-100838000D03*
X76490000Y-107338000D03*
%TD*%
D19*
%TO.C,C6*%
X143510000Y-50800000D03*
D20*
X148510000Y-50800000D03*
%TD*%
D19*
%TO.C,C7*%
X189230000Y-50800000D03*
D20*
X194230000Y-50800000D03*
%TD*%
D19*
%TO.C,C8*%
X166370000Y-50800000D03*
D20*
X171370000Y-50800000D03*
%TD*%
D21*
%TO.C,C11*%
X88860000Y-86360000D03*
D18*
X86360000Y-86360000D03*
%TD*%
D22*
%TO.C,Y1*%
X150151000Y-102616000D03*
X145271000Y-102616000D03*
%TD*%
D23*
%TO.C,P9*%
X208260000Y-81534000D03*
X208260000Y-84074000D03*
D24*
X208260000Y-86614000D03*
D23*
X208260000Y-89154000D03*
%TD*%
D11*
%TO.C,JP16*%
X102870000Y-63500000D03*
X102870000Y-66040000D03*
%TD*%
%TO.C,JP17*%
X105410000Y-63500000D03*
X105410000Y-66040000D03*
%TD*%
%TO.C,JP18*%
X107950000Y-63500000D03*
X107950000Y-66040000D03*
%TD*%
%TO.C,JP11*%
X82550000Y-63500000D03*
X82550000Y-66040000D03*
%TD*%
%TO.C,JP12*%
X85090000Y-63500000D03*
X85090000Y-66040000D03*
%TD*%
D10*
%TO.C,J4*%
X77470000Y-58420000D03*
X80010000Y-58420000D03*
X82550000Y-58420000D03*
X85090000Y-58420000D03*
X87630000Y-58420000D03*
X90170000Y-58420000D03*
X92710000Y-58420000D03*
X95250000Y-58420000D03*
X77470000Y-71120000D03*
X80010000Y-71120000D03*
X82550000Y-71120000D03*
X85090000Y-71120000D03*
X87630000Y-71120000D03*
X90170000Y-71120000D03*
X92710000Y-71120000D03*
X95250000Y-71120000D03*
%TD*%
D11*
%TO.C,JP10*%
X80010000Y-63500000D03*
X80010000Y-66040000D03*
%TD*%
D19*
%TO.C,C9*%
X74930000Y-50800000D03*
D20*
X79930000Y-50800000D03*
%TD*%
D19*
%TO.C,C4*%
X97790000Y-50800000D03*
D20*
X102790000Y-50800000D03*
%TD*%
D11*
%TO.C,P20*%
X107950000Y-51435000D03*
X110490000Y-51435000D03*
X113030000Y-51435000D03*
X115570000Y-51435000D03*
%TD*%
%TO.C,P19*%
X85090000Y-51435000D03*
X87630000Y-51435000D03*
X90170000Y-51435000D03*
X92710000Y-51435000D03*
%TD*%
D10*
%TO.C,J5*%
X100330000Y-58420000D03*
X102870000Y-58420000D03*
X105410000Y-58420000D03*
X107950000Y-58420000D03*
X110490000Y-58420000D03*
X113030000Y-58420000D03*
X115570000Y-58420000D03*
X118110000Y-58420000D03*
X100330000Y-71120000D03*
X102870000Y-71120000D03*
X105410000Y-71120000D03*
X107950000Y-71120000D03*
X110490000Y-71120000D03*
X113030000Y-71120000D03*
X115570000Y-71120000D03*
X118110000Y-71120000D03*
%TD*%
D23*
%TO.C,P8*%
X199390000Y-81534000D03*
X199390000Y-84074000D03*
D24*
X199390000Y-86614000D03*
D23*
X199390000Y-89154000D03*
%TD*%
D11*
%TO.C,U1*%
X179075000Y-86060200D03*
D18*
X179075000Y-83520200D03*
D11*
X181615000Y-86060200D03*
X181615000Y-83520200D03*
X184155000Y-86060200D03*
X184155000Y-83520200D03*
X186695000Y-86060200D03*
X186695000Y-83520200D03*
X189235000Y-86060200D03*
D18*
X189235000Y-83520200D03*
%TD*%
D12*
%TO.C,P5*%
X185166000Y-106680000D03*
D13*
X182626000Y-106680000D03*
D12*
X180086000Y-106680000D03*
%TD*%
D11*
%TO.C,JP20*%
X201930000Y-93472000D03*
X199390000Y-93472000D03*
%TD*%
%TO.C,P22*%
X135890000Y-106680000D03*
D18*
X133350000Y-106680000D03*
D11*
X130810000Y-106680000D03*
%TD*%
D25*
%TO.C,U3*%
X113030000Y-77216000D03*
D26*
X110490000Y-77216000D03*
D25*
X110490000Y-84836000D03*
X113030000Y-84836000D03*
%TD*%
%TO.C,U2*%
X107955000Y-77216000D03*
D26*
X105415000Y-77216000D03*
D25*
X105415000Y-84836000D03*
X107955000Y-84836000D03*
%TD*%
D11*
%TO.C,JP19*%
X92847400Y-101600000D03*
X90307400Y-101600000D03*
X87767400Y-101600000D03*
%TD*%
D16*
%TO.C,D9*%
X97790000Y-88265000D03*
D17*
X97790000Y-98425000D03*
%TD*%
D16*
%TO.C,D10*%
X102870000Y-88265000D03*
D17*
X102870000Y-98425000D03*
%TD*%
D25*
%TO.C,U4*%
X97795000Y-77201000D03*
D26*
X95255000Y-77201000D03*
D25*
X95255000Y-84821000D03*
X97795000Y-84821000D03*
%TD*%
D11*
%TO.C,P12*%
X120650000Y-106680000D03*
D18*
X118110000Y-106680000D03*
D11*
X115570000Y-106680000D03*
%TD*%
D25*
%TO.C,U6*%
X102875000Y-77216000D03*
D26*
X100335000Y-77216000D03*
D25*
X100335000Y-84836000D03*
X102875000Y-84836000D03*
%TD*%
%LPD*%
M02*
