M48
; DRILL file {KiCad (6.0.1)} date Mon Jan 24 13:46:18 2022
; FORMAT={-:-/ absolute / metric / decimal}
; #@! TF.CreationDate,2022-01-24T13:46:18-05:00
; #@! TF.GenerationSoftware,Kicad,Pcbnew,(6.0.1)
; #@! TF.FileFunction,Plated,1,2,PTH
FMAT,2
METRIC
; #@! TA.AperFunction,Plated,PTH,ViaDrill
T1C0.400
; #@! TA.AperFunction,Plated,PTH,ComponentDrill
T2C0.750
; #@! TA.AperFunction,Plated,PTH,ComponentDrill
T3C0.762
; #@! TA.AperFunction,Plated,PTH,ComponentDrill
T4C0.800
; #@! TA.AperFunction,Plated,PTH,ComponentDrill
T5C1.000
; #@! TA.AperFunction,Plated,PTH,ComponentDrill
T6C1.100
; #@! TA.AperFunction,Plated,PTH,ComponentDrill
T7C1.190
; #@! TA.AperFunction,Plated,PTH,ComponentDrill
T8C1.300
%
G90
G05
T1
X130.81Y-75.438
X131.826Y-78.994
X138.176Y-89.916
X140.208Y-91.44
X148.336Y-96.012
X151.765Y-95.885
X161.045Y-78.985
X166.37Y-81.28
X166.37Y-83.82
X176.53Y-91.186
X182.372Y-90.932
T2
X77.47Y-58.42
X77.47Y-71.12
X80.01Y-58.42
X80.01Y-71.12
X82.55Y-58.42
X82.55Y-71.12
X85.09Y-58.42
X85.09Y-71.12
X87.63Y-58.42
X87.63Y-71.12
X90.17Y-58.42
X90.17Y-71.12
X92.71Y-58.42
X92.71Y-71.12
X95.25Y-58.42
X95.25Y-71.12
X100.33Y-58.42
X100.33Y-71.12
X102.87Y-58.42
X102.87Y-71.12
X105.41Y-58.42
X105.41Y-71.12
X107.95Y-58.42
X107.95Y-71.12
X110.49Y-58.42
X110.49Y-71.12
X113.03Y-58.42
X113.03Y-71.12
X115.57Y-58.42
X115.57Y-71.12
X118.11Y-58.42
X118.11Y-71.12
X123.19Y-58.42
X123.19Y-71.12
X125.73Y-58.42
X125.73Y-71.12
X128.27Y-58.42
X128.27Y-71.12
X130.81Y-58.42
X130.81Y-71.12
X133.35Y-58.42
X133.35Y-71.12
X135.89Y-58.42
X135.89Y-71.12
X138.43Y-58.42
X138.43Y-71.12
X140.97Y-58.42
X140.97Y-71.12
X146.05Y-58.42
X146.05Y-71.12
X148.59Y-58.42
X148.59Y-71.12
X151.13Y-58.42
X151.13Y-71.12
X153.67Y-58.42
X153.67Y-71.12
X156.21Y-58.42
X156.21Y-71.12
X158.75Y-58.42
X158.75Y-71.12
X161.29Y-58.42
X161.29Y-71.12
X163.83Y-58.42
X163.83Y-71.12
X168.91Y-58.42
X168.91Y-71.12
X171.45Y-58.42
X171.45Y-71.12
X173.99Y-58.42
X173.99Y-71.12
X176.53Y-58.42
X176.53Y-71.12
X179.07Y-58.42
X179.07Y-71.12
X181.61Y-58.42
X181.61Y-71.12
X184.15Y-58.42
X184.15Y-71.12
X186.69Y-58.42
X186.69Y-71.12
X191.77Y-58.42
X191.77Y-71.12
X194.31Y-58.42
X194.31Y-71.12
X196.85Y-58.42
X196.85Y-71.12
X199.39Y-58.42
X199.39Y-71.12
X201.93Y-58.42
X201.93Y-71.12
X204.47Y-58.42
X204.47Y-71.12
X207.01Y-58.42
X207.01Y-71.12
X209.55Y-58.42
X209.55Y-71.12
T3
X126.365Y-86.36
X126.365Y-88.9
X128.905Y-86.36
X128.905Y-88.9
X131.445Y-86.36
X131.445Y-88.9
T4
X88.86Y-86.36
X95.255Y-77.201
X95.255Y-84.821
X97.79Y-88.265
X97.79Y-98.425
X97.795Y-77.201
X97.795Y-84.821
X100.335Y-77.216
X100.335Y-84.836
X102.87Y-88.265
X102.87Y-98.425
X102.875Y-77.216
X102.875Y-84.836
X105.415Y-77.216
X105.415Y-84.836
X107.95Y-88.265
X107.95Y-98.425
X107.955Y-77.216
X107.955Y-84.836
X110.49Y-77.216
X110.49Y-84.836
X113.03Y-77.216
X113.03Y-84.836
X113.03Y-88.265
X113.03Y-98.425
X145.271Y-102.616
X150.151Y-102.616
T5
X74.93Y-50.8
X76.49Y-100.838
X76.49Y-107.338
X79.93Y-50.8
X80.01Y-63.5
X80.01Y-66.04
X82.55Y-63.5
X82.55Y-66.04
X85.09Y-51.435
X85.09Y-63.5
X85.09Y-66.04
X86.36Y-86.36
X87.63Y-51.435
X87.767Y-101.6
X90.17Y-51.435
X90.307Y-101.6
X92.71Y-51.435
X92.847Y-101.6
X93.98Y-106.68
X96.52Y-106.68
X97.79Y-50.8
X99.06Y-106.68
X101.6Y-106.68
X102.79Y-50.8
X102.87Y-63.5
X102.87Y-66.04
X104.14Y-106.68
X105.41Y-63.5
X105.41Y-66.04
X106.68Y-106.68
X107.95Y-51.435
X107.95Y-63.5
X107.95Y-66.04
X110.49Y-51.435
X113.03Y-51.435
X115.57Y-51.435
X115.57Y-106.68
X118.11Y-106.68
X120.65Y-50.8
X120.65Y-106.68
X125.65Y-50.8
X125.73Y-63.5
X125.73Y-66.04
X128.27Y-63.5
X128.27Y-66.04
X130.81Y-51.435
X130.81Y-63.5
X130.81Y-66.04
X130.81Y-106.68
X133.35Y-51.435
X133.35Y-106.68
X135.89Y-51.435
X135.89Y-106.68
X138.43Y-51.435
X143.51Y-50.8
X148.51Y-50.8
X148.59Y-63.5
X148.59Y-66.04
X151.13Y-63.5
X151.13Y-66.04
X153.67Y-51.435
X153.67Y-63.5
X153.67Y-66.04
X156.21Y-51.435
X158.75Y-51.435
X161.29Y-51.435
X166.37Y-50.8
X171.37Y-50.8
X171.45Y-63.5
X171.45Y-66.04
X173.99Y-63.5
X173.99Y-66.04
X176.53Y-51.435
X176.53Y-63.5
X176.53Y-66.04
X179.07Y-51.435
X179.075Y-83.52
X179.075Y-86.06
X181.61Y-51.435
X181.615Y-83.52
X181.615Y-86.06
X184.15Y-51.435
X184.155Y-83.52
X184.155Y-86.06
X186.695Y-83.52
X186.695Y-86.06
X189.23Y-50.8
X189.235Y-83.52
X189.235Y-86.06
X194.23Y-50.8
X194.31Y-63.5
X194.31Y-66.04
X196.85Y-63.5
X196.85Y-66.04
X199.39Y-51.435
X199.39Y-63.5
X199.39Y-66.04
X199.39Y-93.472
X201.93Y-51.435
X201.93Y-93.472
X204.47Y-51.435
X207.01Y-51.435
T6
X80.99Y-100.838
X80.99Y-107.338
T7
X159.766Y-106.68
X162.306Y-106.68
X164.846Y-106.68
X169.926Y-106.68
X172.466Y-106.68
X175.006Y-106.68
X180.086Y-106.68
X182.626Y-106.68
X185.166Y-106.68
X190.221Y-106.68
X192.761Y-106.68
X195.301Y-106.68
X199.39Y-81.534
X199.39Y-84.074
X199.39Y-86.614
X199.39Y-89.154
X200.381Y-106.68
X202.921Y-106.68
X205.461Y-106.68
X207.01Y-81.534
X207.01Y-84.074
X207.01Y-86.614
X207.01Y-89.154
T8
X77.47Y-78.74
X77.47Y-83.74
X77.47Y-88.74
X77.47Y-93.74
T0
M30
