%TF.GenerationSoftware,KiCad,Pcbnew,9.0.3*%
%TF.CreationDate,2026-03-25T12:23:45-04:00*%
%TF.ProjectId,copis_electronics,636f7069-735f-4656-9c65-6374726f6e69,rev?*%
%TF.SameCoordinates,Original*%
%TF.FileFunction,Paste,Top*%
%TF.FilePolarity,Positive*%
%FSLAX46Y46*%
G04 Gerber Fmt 4.6, Leading zero omitted, Abs format (unit mm)*
G04 Created by KiCad (PCBNEW 9.0.3) date 2026-03-25 12:23:45*
%MOMM*%
%LPD*%
G01*
G04 APERTURE LIST*
G04 Aperture macros list*
%AMRoundRect*
0 Rectangle with rounded corners*
0 $1 Rounding radius*
0 $2 $3 $4 $5 $6 $7 $8 $9 X,Y pos of 4 corners*
0 Add a 4 corners polygon primitive as box body*
4,1,4,$2,$3,$4,$5,$6,$7,$8,$9,$2,$3,0*
0 Add four circle primitives for the rounded corners*
1,1,$1+$1,$2,$3*
1,1,$1+$1,$4,$5*
1,1,$1+$1,$6,$7*
1,1,$1+$1,$8,$9*
0 Add four rect primitives between the rounded corners*
20,1,$1+$1,$2,$3,$4,$5,0*
20,1,$1+$1,$4,$5,$6,$7,0*
20,1,$1+$1,$6,$7,$8,$9,0*
20,1,$1+$1,$8,$9,$2,$3,0*%
%AMRotRect*
0 Rectangle, with rotation*
0 The origin of the aperture is its center*
0 $1 length*
0 $2 width*
0 $3 Rotation angle, in degrees counterclockwise*
0 Add horizontal line*
21,1,$1,$2,0,0,$3*%
G04 Aperture macros list end*
%ADD10RoundRect,0.250000X-0.350000X-0.450000X0.350000X-0.450000X0.350000X0.450000X-0.350000X0.450000X0*%
%ADD11RotRect,1.500000X0.550000X45.000000*%
%ADD12RotRect,1.500000X0.550000X135.000000*%
%ADD13RoundRect,0.250000X0.450000X-0.350000X0.450000X0.350000X-0.450000X0.350000X-0.450000X-0.350000X0*%
%ADD14RoundRect,0.250000X0.450000X-0.325000X0.450000X0.325000X-0.450000X0.325000X-0.450000X-0.325000X0*%
%ADD15RoundRect,0.250000X-0.325000X-0.450000X0.325000X-0.450000X0.325000X0.450000X-0.325000X0.450000X0*%
%ADD16RoundRect,0.250000X-0.450000X0.350000X-0.450000X-0.350000X0.450000X-0.350000X0.450000X0.350000X0*%
%ADD17RoundRect,0.250000X-0.450000X0.325000X-0.450000X-0.325000X0.450000X-0.325000X0.450000X0.325000X0*%
%ADD18RoundRect,0.250001X-0.462499X-0.624999X0.462499X-0.624999X0.462499X0.624999X-0.462499X0.624999X0*%
%ADD19R,1.200000X0.900000*%
%ADD20RoundRect,0.250000X0.350000X0.450000X-0.350000X0.450000X-0.350000X-0.450000X0.350000X-0.450000X0*%
%ADD21RoundRect,0.150000X0.150000X-0.587500X0.150000X0.587500X-0.150000X0.587500X-0.150000X-0.587500X0*%
%ADD22RoundRect,0.250001X-2.474999X0.799999X-2.474999X-0.799999X2.474999X-0.799999X2.474999X0.799999X0*%
%ADD23RoundRect,0.250000X-0.400000X-1.450000X0.400000X-1.450000X0.400000X1.450000X-0.400000X1.450000X0*%
G04 APERTURE END LIST*
D10*
%TO.C,R3*%
X135398000Y-75429000D03*
X137398000Y-75429000D03*
%TD*%
D11*
%TO.C,U5*%
X142975664Y-87562082D03*
X143541350Y-88127767D03*
X144107035Y-88693452D03*
X144672720Y-89259138D03*
X145238406Y-89824823D03*
X145804091Y-90390509D03*
X146369777Y-90956194D03*
X146935462Y-91521880D03*
X147501148Y-92087565D03*
X148066833Y-92653250D03*
X148632518Y-93218936D03*
D12*
X151036682Y-93218936D03*
X151602367Y-92653250D03*
X152168052Y-92087565D03*
X152733738Y-91521880D03*
X153299423Y-90956194D03*
X153865109Y-90390509D03*
X154430794Y-89824823D03*
X154996480Y-89259138D03*
X155562165Y-88693452D03*
X156127850Y-88127767D03*
X156693536Y-87562082D03*
D11*
X156693536Y-85157918D03*
X156127850Y-84592233D03*
X155562165Y-84026548D03*
X154996480Y-83460862D03*
X154430794Y-82895177D03*
X153865109Y-82329491D03*
X153299423Y-81763806D03*
X152733738Y-81198120D03*
X152168052Y-80632435D03*
X151602367Y-80066750D03*
X151036682Y-79501064D03*
D12*
X148632518Y-79501064D03*
X148066833Y-80066750D03*
X147501148Y-80632435D03*
X146935462Y-81198120D03*
X146369777Y-81763806D03*
X145804091Y-82329491D03*
X145238406Y-82895177D03*
X144672720Y-83460862D03*
X144107035Y-84026548D03*
X143541350Y-84592233D03*
X142975664Y-85157918D03*
%TD*%
D13*
%TO.C,R6*%
X110490000Y-92710000D03*
X110490000Y-90710000D03*
%TD*%
D14*
%TO.C,C1*%
X155346400Y-102320200D03*
X155346400Y-100270200D03*
%TD*%
D15*
%TO.C,C10*%
X138675000Y-96520000D03*
X140725000Y-96520000D03*
%TD*%
D14*
%TO.C,C12*%
X161798000Y-94742000D03*
X161798000Y-92692000D03*
%TD*%
D16*
%TO.C,R2*%
X90678000Y-79026000D03*
X90678000Y-81026000D03*
%TD*%
D13*
%TO.C,R7*%
X164846000Y-102362000D03*
X164846000Y-100362000D03*
%TD*%
D17*
%TO.C,C13*%
X140970000Y-76944000D03*
X140970000Y-78994000D03*
%TD*%
D18*
%TO.C,D1*%
X88682500Y-75565000D03*
X91657500Y-75565000D03*
%TD*%
D19*
%TO.C,D4*%
X161036000Y-99188000D03*
X161036000Y-102488000D03*
%TD*%
D13*
%TO.C,R10*%
X195326000Y-102346000D03*
X195326000Y-100346000D03*
%TD*%
%TO.C,R11*%
X205486000Y-102362000D03*
X205486000Y-100362000D03*
%TD*%
D19*
%TO.C,D8*%
X201676000Y-99062000D03*
X201676000Y-102362000D03*
%TD*%
%TO.C,D5*%
X171196000Y-99188000D03*
X171196000Y-102488000D03*
%TD*%
%TO.C,D7*%
X191516000Y-99188000D03*
X191516000Y-102488000D03*
%TD*%
%TO.C,D6*%
X181356000Y-99188000D03*
X181356000Y-102488000D03*
%TD*%
D13*
%TO.C,R9*%
X185166000Y-102362000D03*
X185166000Y-100362000D03*
%TD*%
%TO.C,R8*%
X175006000Y-102362000D03*
X175006000Y-100362000D03*
%TD*%
D20*
%TO.C,R12*%
X164560000Y-86360000D03*
X162560000Y-86360000D03*
%TD*%
D15*
%TO.C,C2*%
X138675000Y-100330000D03*
X140725000Y-100330000D03*
%TD*%
D21*
%TO.C,Q1*%
X169230000Y-85597500D03*
X171130000Y-85597500D03*
X170180000Y-83722500D03*
%TD*%
D13*
%TO.C,R5*%
X105410000Y-92710000D03*
X105410000Y-90710000D03*
%TD*%
D14*
%TO.C,C3*%
X158242000Y-81035000D03*
X158242000Y-78985000D03*
%TD*%
D20*
%TO.C,R4*%
X163417000Y-82550000D03*
X161417000Y-82550000D03*
%TD*%
D13*
%TO.C,R1*%
X135890000Y-96520000D03*
X135890000Y-94520000D03*
%TD*%
D10*
%TO.C,R14*%
X117602000Y-77978000D03*
X119602000Y-77978000D03*
%TD*%
D13*
%TO.C,R15*%
X95250000Y-92694000D03*
X95250000Y-90694000D03*
%TD*%
%TO.C,R16*%
X100330000Y-92710000D03*
X100330000Y-90710000D03*
%TD*%
D22*
%TO.C,F2*%
X72212200Y-61422000D03*
X72212200Y-68372000D03*
%TD*%
D23*
%TO.C,F1*%
X86040000Y-94335600D03*
X90490000Y-94335600D03*
%TD*%
D10*
%TO.C,R13*%
X117602000Y-81026000D03*
X119602000Y-81026000D03*
%TD*%
M02*
