%FSLAX45Y45*%
G04 Gerber Fmt 4.5, Leading zero omitted, Abs format (unit mm)*
G04 Created by KiCad (PCBNEW (6.0.1)) date 2022-01-24 13:46:20*
%MOMM*%
%LPD*%
G01*
G04 APERTURE LIST*
%TA.AperFunction,Profile*%
%ADD10C,0.150000*%
%TD*%
%ADD11C,0.200000*%
%ADD12C,0.040000*%
%ADD13C,0.075000*%
%ADD14C,0.076200*%
%ADD15C,0.080000*%
%ADD16C,0.100000*%
%ADD17C,0.110000*%
%ADD18C,0.119000*%
%ADD19C,0.130000*%
G04 APERTURE END LIST*
D10*
X6604000Y-11303000D02*
X6604000Y-3937000D01*
X7135000Y-10922000D02*
G75*
G03*
X7135000Y-10922000I-150000J0D01*
G01*
X21613000Y-10922000D02*
G75*
G03*
X21613000Y-10922000I-150000J0D01*
G01*
X7135000Y-4318000D02*
G75*
G03*
X7135000Y-4318000I-150000J0D01*
G01*
X21844000Y-3937000D02*
X21844000Y-11303000D01*
X21613000Y-4318000D02*
G75*
G03*
X21613000Y-4318000I-150000J0D01*
G01*
X21844000Y-11303000D02*
X6604000Y-11303000D01*
X6604000Y-3937000D02*
X21844000Y-3937000D01*
D11*
D12*
X13061000Y-7523800D02*
X13101000Y-7563800D01*
X13101000Y-7523800D02*
X13061000Y-7563800D01*
X13162600Y-7879400D02*
X13202600Y-7919400D01*
X13202600Y-7879400D02*
X13162600Y-7919400D01*
X13797600Y-8971600D02*
X13837600Y-9011600D01*
X13837600Y-8971600D02*
X13797600Y-9011600D01*
X14000800Y-9124000D02*
X14040800Y-9164000D01*
X14040800Y-9124000D02*
X14000800Y-9164000D01*
X14813600Y-9581200D02*
X14853600Y-9621200D01*
X14853600Y-9581200D02*
X14813600Y-9621200D01*
X15156500Y-9568500D02*
X15196500Y-9608500D01*
X15196500Y-9568500D02*
X15156500Y-9608500D01*
X16084500Y-7878500D02*
X16124500Y-7918500D01*
X16124500Y-7878500D02*
X16084500Y-7918500D01*
X16617000Y-8108000D02*
X16657000Y-8148000D01*
X16657000Y-8108000D02*
X16617000Y-8148000D01*
X16617000Y-8362000D02*
X16657000Y-8402000D01*
X16657000Y-8362000D02*
X16617000Y-8402000D01*
X17633000Y-9098600D02*
X17673000Y-9138600D01*
X17673000Y-9098600D02*
X17633000Y-9138600D01*
X18217200Y-9073200D02*
X18257200Y-9113200D01*
X18257200Y-9073200D02*
X18217200Y-9113200D01*
D13*
X7784500Y-5842000D02*
G75*
G03*
X7784500Y-5842000I-37500J0D01*
G01*
X7784500Y-7112000D02*
G75*
G03*
X7784500Y-7112000I-37500J0D01*
G01*
X8038500Y-5842000D02*
G75*
G03*
X8038500Y-5842000I-37500J0D01*
G01*
X8038500Y-7112000D02*
G75*
G03*
X8038500Y-7112000I-37500J0D01*
G01*
X8292500Y-5842000D02*
G75*
G03*
X8292500Y-5842000I-37500J0D01*
G01*
X8292500Y-7112000D02*
G75*
G03*
X8292500Y-7112000I-37500J0D01*
G01*
X8546500Y-5842000D02*
G75*
G03*
X8546500Y-5842000I-37500J0D01*
G01*
X8546500Y-7112000D02*
G75*
G03*
X8546500Y-7112000I-37500J0D01*
G01*
X8800500Y-5842000D02*
G75*
G03*
X8800500Y-5842000I-37500J0D01*
G01*
X8800500Y-7112000D02*
G75*
G03*
X8800500Y-7112000I-37500J0D01*
G01*
X9054500Y-5842000D02*
G75*
G03*
X9054500Y-5842000I-37500J0D01*
G01*
X9054500Y-7112000D02*
G75*
G03*
X9054500Y-7112000I-37500J0D01*
G01*
X9308500Y-5842000D02*
G75*
G03*
X9308500Y-5842000I-37500J0D01*
G01*
X9308500Y-7112000D02*
G75*
G03*
X9308500Y-7112000I-37500J0D01*
G01*
X9562500Y-5842000D02*
G75*
G03*
X9562500Y-5842000I-37500J0D01*
G01*
X9562500Y-7112000D02*
G75*
G03*
X9562500Y-7112000I-37500J0D01*
G01*
X10070500Y-5842000D02*
G75*
G03*
X10070500Y-5842000I-37500J0D01*
G01*
X10070500Y-7112000D02*
G75*
G03*
X10070500Y-7112000I-37500J0D01*
G01*
X10324500Y-5842000D02*
G75*
G03*
X10324500Y-5842000I-37500J0D01*
G01*
X10324500Y-7112000D02*
G75*
G03*
X10324500Y-7112000I-37500J0D01*
G01*
X10578500Y-5842000D02*
G75*
G03*
X10578500Y-5842000I-37500J0D01*
G01*
X10578500Y-7112000D02*
G75*
G03*
X10578500Y-7112000I-37500J0D01*
G01*
X10832500Y-5842000D02*
G75*
G03*
X10832500Y-5842000I-37500J0D01*
G01*
X10832500Y-7112000D02*
G75*
G03*
X10832500Y-7112000I-37500J0D01*
G01*
X11086500Y-5842000D02*
G75*
G03*
X11086500Y-5842000I-37500J0D01*
G01*
X11086500Y-7112000D02*
G75*
G03*
X11086500Y-7112000I-37500J0D01*
G01*
X11340500Y-5842000D02*
G75*
G03*
X11340500Y-5842000I-37500J0D01*
G01*
X11340500Y-7112000D02*
G75*
G03*
X11340500Y-7112000I-37500J0D01*
G01*
X11594500Y-5842000D02*
G75*
G03*
X11594500Y-5842000I-37500J0D01*
G01*
X11594500Y-7112000D02*
G75*
G03*
X11594500Y-7112000I-37500J0D01*
G01*
X11848500Y-5842000D02*
G75*
G03*
X11848500Y-5842000I-37500J0D01*
G01*
X11848500Y-7112000D02*
G75*
G03*
X11848500Y-7112000I-37500J0D01*
G01*
X12356500Y-5842000D02*
G75*
G03*
X12356500Y-5842000I-37500J0D01*
G01*
X12356500Y-7112000D02*
G75*
G03*
X12356500Y-7112000I-37500J0D01*
G01*
X12610500Y-5842000D02*
G75*
G03*
X12610500Y-5842000I-37500J0D01*
G01*
X12610500Y-7112000D02*
G75*
G03*
X12610500Y-7112000I-37500J0D01*
G01*
X12864500Y-5842000D02*
G75*
G03*
X12864500Y-5842000I-37500J0D01*
G01*
X12864500Y-7112000D02*
G75*
G03*
X12864500Y-7112000I-37500J0D01*
G01*
X13118500Y-5842000D02*
G75*
G03*
X13118500Y-5842000I-37500J0D01*
G01*
X13118500Y-7112000D02*
G75*
G03*
X13118500Y-7112000I-37500J0D01*
G01*
X13372500Y-5842000D02*
G75*
G03*
X13372500Y-5842000I-37500J0D01*
G01*
X13372500Y-7112000D02*
G75*
G03*
X13372500Y-7112000I-37500J0D01*
G01*
X13626500Y-5842000D02*
G75*
G03*
X13626500Y-5842000I-37500J0D01*
G01*
X13626500Y-7112000D02*
G75*
G03*
X13626500Y-7112000I-37500J0D01*
G01*
X13880500Y-5842000D02*
G75*
G03*
X13880500Y-5842000I-37500J0D01*
G01*
X13880500Y-7112000D02*
G75*
G03*
X13880500Y-7112000I-37500J0D01*
G01*
X14134500Y-5842000D02*
G75*
G03*
X14134500Y-5842000I-37500J0D01*
G01*
X14134500Y-7112000D02*
G75*
G03*
X14134500Y-7112000I-37500J0D01*
G01*
X14642500Y-5842000D02*
G75*
G03*
X14642500Y-5842000I-37500J0D01*
G01*
X14642500Y-7112000D02*
G75*
G03*
X14642500Y-7112000I-37500J0D01*
G01*
X14896500Y-5842000D02*
G75*
G03*
X14896500Y-5842000I-37500J0D01*
G01*
X14896500Y-7112000D02*
G75*
G03*
X14896500Y-7112000I-37500J0D01*
G01*
X15150500Y-5842000D02*
G75*
G03*
X15150500Y-5842000I-37500J0D01*
G01*
X15150500Y-7112000D02*
G75*
G03*
X15150500Y-7112000I-37500J0D01*
G01*
X15404500Y-5842000D02*
G75*
G03*
X15404500Y-5842000I-37500J0D01*
G01*
X15404500Y-7112000D02*
G75*
G03*
X15404500Y-7112000I-37500J0D01*
G01*
X15658500Y-5842000D02*
G75*
G03*
X15658500Y-5842000I-37500J0D01*
G01*
X15658500Y-7112000D02*
G75*
G03*
X15658500Y-7112000I-37500J0D01*
G01*
X15912500Y-5842000D02*
G75*
G03*
X15912500Y-5842000I-37500J0D01*
G01*
X15912500Y-7112000D02*
G75*
G03*
X15912500Y-7112000I-37500J0D01*
G01*
X16166500Y-5842000D02*
G75*
G03*
X16166500Y-5842000I-37500J0D01*
G01*
X16166500Y-7112000D02*
G75*
G03*
X16166500Y-7112000I-37500J0D01*
G01*
X16420500Y-5842000D02*
G75*
G03*
X16420500Y-5842000I-37500J0D01*
G01*
X16420500Y-7112000D02*
G75*
G03*
X16420500Y-7112000I-37500J0D01*
G01*
X16928500Y-5842000D02*
G75*
G03*
X16928500Y-5842000I-37500J0D01*
G01*
X16928500Y-7112000D02*
G75*
G03*
X16928500Y-7112000I-37500J0D01*
G01*
X17182500Y-5842000D02*
G75*
G03*
X17182500Y-5842000I-37500J0D01*
G01*
X17182500Y-7112000D02*
G75*
G03*
X17182500Y-7112000I-37500J0D01*
G01*
X17436500Y-5842000D02*
G75*
G03*
X17436500Y-5842000I-37500J0D01*
G01*
X17436500Y-7112000D02*
G75*
G03*
X17436500Y-7112000I-37500J0D01*
G01*
X17690500Y-5842000D02*
G75*
G03*
X17690500Y-5842000I-37500J0D01*
G01*
X17690500Y-7112000D02*
G75*
G03*
X17690500Y-7112000I-37500J0D01*
G01*
X17944500Y-5842000D02*
G75*
G03*
X17944500Y-5842000I-37500J0D01*
G01*
X17944500Y-7112000D02*
G75*
G03*
X17944500Y-7112000I-37500J0D01*
G01*
X18198500Y-5842000D02*
G75*
G03*
X18198500Y-5842000I-37500J0D01*
G01*
X18198500Y-7112000D02*
G75*
G03*
X18198500Y-7112000I-37500J0D01*
G01*
X18452500Y-5842000D02*
G75*
G03*
X18452500Y-5842000I-37500J0D01*
G01*
X18452500Y-7112000D02*
G75*
G03*
X18452500Y-7112000I-37500J0D01*
G01*
X18706500Y-5842000D02*
G75*
G03*
X18706500Y-5842000I-37500J0D01*
G01*
X18706500Y-7112000D02*
G75*
G03*
X18706500Y-7112000I-37500J0D01*
G01*
X19214500Y-5842000D02*
G75*
G03*
X19214500Y-5842000I-37500J0D01*
G01*
X19214500Y-7112000D02*
G75*
G03*
X19214500Y-7112000I-37500J0D01*
G01*
X19468500Y-5842000D02*
G75*
G03*
X19468500Y-5842000I-37500J0D01*
G01*
X19468500Y-7112000D02*
G75*
G03*
X19468500Y-7112000I-37500J0D01*
G01*
X19722500Y-5842000D02*
G75*
G03*
X19722500Y-5842000I-37500J0D01*
G01*
X19722500Y-7112000D02*
G75*
G03*
X19722500Y-7112000I-37500J0D01*
G01*
X19976500Y-5842000D02*
G75*
G03*
X19976500Y-5842000I-37500J0D01*
G01*
X19976500Y-7112000D02*
G75*
G03*
X19976500Y-7112000I-37500J0D01*
G01*
X20230500Y-5842000D02*
G75*
G03*
X20230500Y-5842000I-37500J0D01*
G01*
X20230500Y-7112000D02*
G75*
G03*
X20230500Y-7112000I-37500J0D01*
G01*
X20484500Y-5842000D02*
G75*
G03*
X20484500Y-5842000I-37500J0D01*
G01*
X20484500Y-7112000D02*
G75*
G03*
X20484500Y-7112000I-37500J0D01*
G01*
X20738500Y-5842000D02*
G75*
G03*
X20738500Y-5842000I-37500J0D01*
G01*
X20738500Y-7112000D02*
G75*
G03*
X20738500Y-7112000I-37500J0D01*
G01*
X20992500Y-5842000D02*
G75*
G03*
X20992500Y-5842000I-37500J0D01*
G01*
X20992500Y-7112000D02*
G75*
G03*
X20992500Y-7112000I-37500J0D01*
G01*
D14*
X12636500Y-8597900D02*
X12636500Y-8674100D01*
X12598400Y-8636000D02*
X12674600Y-8636000D01*
X12636500Y-8851900D02*
X12636500Y-8928100D01*
X12598400Y-8890000D02*
X12674600Y-8890000D01*
X12890500Y-8597900D02*
X12890500Y-8674100D01*
X12852400Y-8636000D02*
X12928600Y-8636000D01*
X12890500Y-8851900D02*
X12890500Y-8928100D01*
X12852400Y-8890000D02*
X12928600Y-8890000D01*
X13144500Y-8597900D02*
X13144500Y-8674100D01*
X13106400Y-8636000D02*
X13182600Y-8636000D01*
X13144500Y-8851900D02*
X13144500Y-8928100D01*
X13106400Y-8890000D02*
X13182600Y-8890000D01*
D15*
X8914285Y-8664285D02*
X8914285Y-8607716D01*
X8857716Y-8607716D01*
X8857716Y-8664285D01*
X8914285Y-8664285D01*
X9553785Y-7748384D02*
X9553785Y-7691815D01*
X9497216Y-7691815D01*
X9497216Y-7748384D01*
X9553785Y-7748384D01*
X9553785Y-8510385D02*
X9553785Y-8453816D01*
X9497216Y-8453816D01*
X9497216Y-8510385D01*
X9553785Y-8510385D01*
X9807285Y-8854785D02*
X9807285Y-8798216D01*
X9750716Y-8798216D01*
X9750716Y-8854785D01*
X9807285Y-8854785D01*
X9807285Y-9870785D02*
X9807285Y-9814216D01*
X9750716Y-9814216D01*
X9750716Y-9870785D01*
X9807285Y-9870785D01*
X9807785Y-7748384D02*
X9807785Y-7691815D01*
X9751216Y-7691815D01*
X9751216Y-7748384D01*
X9807785Y-7748384D01*
X9807785Y-8510385D02*
X9807785Y-8453816D01*
X9751216Y-8453816D01*
X9751216Y-8510385D01*
X9807785Y-8510385D01*
X10061785Y-7749884D02*
X10061785Y-7693315D01*
X10005216Y-7693315D01*
X10005216Y-7749884D01*
X10061785Y-7749884D01*
X10061785Y-8511885D02*
X10061785Y-8455316D01*
X10005216Y-8455316D01*
X10005216Y-8511885D01*
X10061785Y-8511885D01*
X10315285Y-8854785D02*
X10315285Y-8798216D01*
X10258716Y-8798216D01*
X10258716Y-8854785D01*
X10315285Y-8854785D01*
X10315285Y-9870785D02*
X10315285Y-9814216D01*
X10258716Y-9814216D01*
X10258716Y-9870785D01*
X10315285Y-9870785D01*
X10315785Y-7749884D02*
X10315785Y-7693315D01*
X10259216Y-7693315D01*
X10259216Y-7749884D01*
X10315785Y-7749884D01*
X10315785Y-8511885D02*
X10315785Y-8455316D01*
X10259216Y-8455316D01*
X10259216Y-8511885D01*
X10315785Y-8511885D01*
X10569785Y-7749884D02*
X10569785Y-7693315D01*
X10513216Y-7693315D01*
X10513216Y-7749884D01*
X10569785Y-7749884D01*
X10569785Y-8511885D02*
X10569785Y-8455316D01*
X10513216Y-8455316D01*
X10513216Y-8511885D01*
X10569785Y-8511885D01*
X10823285Y-8854785D02*
X10823285Y-8798216D01*
X10766716Y-8798216D01*
X10766716Y-8854785D01*
X10823285Y-8854785D01*
X10823285Y-9870785D02*
X10823285Y-9814216D01*
X10766716Y-9814216D01*
X10766716Y-9870785D01*
X10823285Y-9870785D01*
X10823785Y-7749884D02*
X10823785Y-7693315D01*
X10767216Y-7693315D01*
X10767216Y-7749884D01*
X10823785Y-7749884D01*
X10823785Y-8511885D02*
X10823785Y-8455316D01*
X10767216Y-8455316D01*
X10767216Y-8511885D01*
X10823785Y-8511885D01*
X11077285Y-7749884D02*
X11077285Y-7693315D01*
X11020716Y-7693315D01*
X11020716Y-7749884D01*
X11077285Y-7749884D01*
X11077285Y-8511885D02*
X11077285Y-8455316D01*
X11020716Y-8455316D01*
X11020716Y-8511885D01*
X11077285Y-8511885D01*
X11331284Y-7749884D02*
X11331284Y-7693315D01*
X11274715Y-7693315D01*
X11274715Y-7749884D01*
X11331284Y-7749884D01*
X11331284Y-8511885D02*
X11331284Y-8455316D01*
X11274715Y-8455316D01*
X11274715Y-8511885D01*
X11331284Y-8511885D01*
X11331284Y-8854785D02*
X11331284Y-8798216D01*
X11274715Y-8798216D01*
X11274715Y-8854785D01*
X11331284Y-8854785D01*
X11331284Y-9870785D02*
X11331284Y-9814216D01*
X11274715Y-9814216D01*
X11274715Y-9870785D01*
X11331284Y-9870785D01*
X14555384Y-10289885D02*
X14555384Y-10233316D01*
X14498815Y-10233316D01*
X14498815Y-10289885D01*
X14555384Y-10289885D01*
X15043384Y-10289885D02*
X15043384Y-10233316D01*
X14986815Y-10233316D01*
X14986815Y-10289885D01*
X15043384Y-10289885D01*
D16*
X7493000Y-5130000D02*
X7543000Y-5080000D01*
X7493000Y-5030000D01*
X7443000Y-5080000D01*
X7493000Y-5130000D01*
X7649000Y-10133800D02*
X7699000Y-10083800D01*
X7649000Y-10033800D01*
X7599000Y-10083800D01*
X7649000Y-10133800D01*
X7649000Y-10783800D02*
X7699000Y-10733800D01*
X7649000Y-10683800D01*
X7599000Y-10733800D01*
X7649000Y-10783800D01*
X7993000Y-5130000D02*
X8043000Y-5080000D01*
X7993000Y-5030000D01*
X7943000Y-5080000D01*
X7993000Y-5130000D01*
X8001000Y-6400000D02*
X8051000Y-6350000D01*
X8001000Y-6300000D01*
X7951000Y-6350000D01*
X8001000Y-6400000D01*
X8001000Y-6654000D02*
X8051000Y-6604000D01*
X8001000Y-6554000D01*
X7951000Y-6604000D01*
X8001000Y-6654000D01*
X8255000Y-6400000D02*
X8305000Y-6350000D01*
X8255000Y-6300000D01*
X8205000Y-6350000D01*
X8255000Y-6400000D01*
X8255000Y-6654000D02*
X8305000Y-6604000D01*
X8255000Y-6554000D01*
X8205000Y-6604000D01*
X8255000Y-6654000D01*
X8509000Y-5193500D02*
X8559000Y-5143500D01*
X8509000Y-5093500D01*
X8459000Y-5143500D01*
X8509000Y-5193500D01*
X8509000Y-6400000D02*
X8559000Y-6350000D01*
X8509000Y-6300000D01*
X8459000Y-6350000D01*
X8509000Y-6400000D01*
X8509000Y-6654000D02*
X8559000Y-6604000D01*
X8509000Y-6554000D01*
X8459000Y-6604000D01*
X8509000Y-6654000D01*
X8636000Y-8686000D02*
X8686000Y-8636000D01*
X8636000Y-8586000D01*
X8586000Y-8636000D01*
X8636000Y-8686000D01*
X8763000Y-5193500D02*
X8813000Y-5143500D01*
X8763000Y-5093500D01*
X8713000Y-5143500D01*
X8763000Y-5193500D01*
X8776740Y-10210000D02*
X8826740Y-10160000D01*
X8776740Y-10110000D01*
X8726740Y-10160000D01*
X8776740Y-10210000D01*
X9017000Y-5193500D02*
X9067000Y-5143500D01*
X9017000Y-5093500D01*
X8967000Y-5143500D01*
X9017000Y-5193500D01*
X9030740Y-10210000D02*
X9080740Y-10160000D01*
X9030740Y-10110000D01*
X8980740Y-10160000D01*
X9030740Y-10210000D01*
X9271000Y-5193500D02*
X9321000Y-5143500D01*
X9271000Y-5093500D01*
X9221000Y-5143500D01*
X9271000Y-5193500D01*
X9284740Y-10210000D02*
X9334740Y-10160000D01*
X9284740Y-10110000D01*
X9234740Y-10160000D01*
X9284740Y-10210000D01*
X9398000Y-10718000D02*
X9448000Y-10668000D01*
X9398000Y-10618000D01*
X9348000Y-10668000D01*
X9398000Y-10718000D01*
X9652000Y-10718000D02*
X9702000Y-10668000D01*
X9652000Y-10618000D01*
X9602000Y-10668000D01*
X9652000Y-10718000D01*
X9779000Y-5130000D02*
X9829000Y-5080000D01*
X9779000Y-5030000D01*
X9729000Y-5080000D01*
X9779000Y-5130000D01*
X9906000Y-10718000D02*
X9956000Y-10668000D01*
X9906000Y-10618000D01*
X9856000Y-10668000D01*
X9906000Y-10718000D01*
X10160000Y-10718000D02*
X10210000Y-10668000D01*
X10160000Y-10618000D01*
X10110000Y-10668000D01*
X10160000Y-10718000D01*
X10279000Y-5130000D02*
X10329000Y-5080000D01*
X10279000Y-5030000D01*
X10229000Y-5080000D01*
X10279000Y-5130000D01*
X10287000Y-6400000D02*
X10337000Y-6350000D01*
X10287000Y-6300000D01*
X10237000Y-6350000D01*
X10287000Y-6400000D01*
X10287000Y-6654000D02*
X10337000Y-6604000D01*
X10287000Y-6554000D01*
X10237000Y-6604000D01*
X10287000Y-6654000D01*
X10414000Y-10718000D02*
X10464000Y-10668000D01*
X10414000Y-10618000D01*
X10364000Y-10668000D01*
X10414000Y-10718000D01*
X10541000Y-6400000D02*
X10591000Y-6350000D01*
X10541000Y-6300000D01*
X10491000Y-6350000D01*
X10541000Y-6400000D01*
X10541000Y-6654000D02*
X10591000Y-6604000D01*
X10541000Y-6554000D01*
X10491000Y-6604000D01*
X10541000Y-6654000D01*
X10668000Y-10718000D02*
X10718000Y-10668000D01*
X10668000Y-10618000D01*
X10618000Y-10668000D01*
X10668000Y-10718000D01*
X10795000Y-5193500D02*
X10845000Y-5143500D01*
X10795000Y-5093500D01*
X10745000Y-5143500D01*
X10795000Y-5193500D01*
X10795000Y-6400000D02*
X10845000Y-6350000D01*
X10795000Y-6300000D01*
X10745000Y-6350000D01*
X10795000Y-6400000D01*
X10795000Y-6654000D02*
X10845000Y-6604000D01*
X10795000Y-6554000D01*
X10745000Y-6604000D01*
X10795000Y-6654000D01*
X11049000Y-5193500D02*
X11099000Y-5143500D01*
X11049000Y-5093500D01*
X10999000Y-5143500D01*
X11049000Y-5193500D01*
X11303000Y-5193500D02*
X11353000Y-5143500D01*
X11303000Y-5093500D01*
X11253000Y-5143500D01*
X11303000Y-5193500D01*
X11557000Y-5193500D02*
X11607000Y-5143500D01*
X11557000Y-5093500D01*
X11507000Y-5143500D01*
X11557000Y-5193500D01*
X11557000Y-10718000D02*
X11607000Y-10668000D01*
X11557000Y-10618000D01*
X11507000Y-10668000D01*
X11557000Y-10718000D01*
X11811000Y-10718000D02*
X11861000Y-10668000D01*
X11811000Y-10618000D01*
X11761000Y-10668000D01*
X11811000Y-10718000D01*
X12065000Y-5130000D02*
X12115000Y-5080000D01*
X12065000Y-5030000D01*
X12015000Y-5080000D01*
X12065000Y-5130000D01*
X12065000Y-10718000D02*
X12115000Y-10668000D01*
X12065000Y-10618000D01*
X12015000Y-10668000D01*
X12065000Y-10718000D01*
X12565000Y-5130000D02*
X12615000Y-5080000D01*
X12565000Y-5030000D01*
X12515000Y-5080000D01*
X12565000Y-5130000D01*
X12573000Y-6400000D02*
X12623000Y-6350000D01*
X12573000Y-6300000D01*
X12523000Y-6350000D01*
X12573000Y-6400000D01*
X12573000Y-6654000D02*
X12623000Y-6604000D01*
X12573000Y-6554000D01*
X12523000Y-6604000D01*
X12573000Y-6654000D01*
X12827000Y-6400000D02*
X12877000Y-6350000D01*
X12827000Y-6300000D01*
X12777000Y-6350000D01*
X12827000Y-6400000D01*
X12827000Y-6654000D02*
X12877000Y-6604000D01*
X12827000Y-6554000D01*
X12777000Y-6604000D01*
X12827000Y-6654000D01*
X13081000Y-5193500D02*
X13131000Y-5143500D01*
X13081000Y-5093500D01*
X13031000Y-5143500D01*
X13081000Y-5193500D01*
X13081000Y-6400000D02*
X13131000Y-6350000D01*
X13081000Y-6300000D01*
X13031000Y-6350000D01*
X13081000Y-6400000D01*
X13081000Y-6654000D02*
X13131000Y-6604000D01*
X13081000Y-6554000D01*
X13031000Y-6604000D01*
X13081000Y-6654000D01*
X13081000Y-10718000D02*
X13131000Y-10668000D01*
X13081000Y-10618000D01*
X13031000Y-10668000D01*
X13081000Y-10718000D01*
X13335000Y-5193500D02*
X13385000Y-5143500D01*
X13335000Y-5093500D01*
X13285000Y-5143500D01*
X13335000Y-5193500D01*
X13335000Y-10718000D02*
X13385000Y-10668000D01*
X13335000Y-10618000D01*
X13285000Y-10668000D01*
X13335000Y-10718000D01*
X13589000Y-5193500D02*
X13639000Y-5143500D01*
X13589000Y-5093500D01*
X13539000Y-5143500D01*
X13589000Y-5193500D01*
X13589000Y-10718000D02*
X13639000Y-10668000D01*
X13589000Y-10618000D01*
X13539000Y-10668000D01*
X13589000Y-10718000D01*
X13843000Y-5193500D02*
X13893000Y-5143500D01*
X13843000Y-5093500D01*
X13793000Y-5143500D01*
X13843000Y-5193500D01*
X14351000Y-5130000D02*
X14401000Y-5080000D01*
X14351000Y-5030000D01*
X14301000Y-5080000D01*
X14351000Y-5130000D01*
X14851000Y-5130000D02*
X14901000Y-5080000D01*
X14851000Y-5030000D01*
X14801000Y-5080000D01*
X14851000Y-5130000D01*
X14859000Y-6400000D02*
X14909000Y-6350000D01*
X14859000Y-6300000D01*
X14809000Y-6350000D01*
X14859000Y-6400000D01*
X14859000Y-6654000D02*
X14909000Y-6604000D01*
X14859000Y-6554000D01*
X14809000Y-6604000D01*
X14859000Y-6654000D01*
X15113000Y-6400000D02*
X15163000Y-6350000D01*
X15113000Y-6300000D01*
X15063000Y-6350000D01*
X15113000Y-6400000D01*
X15113000Y-6654000D02*
X15163000Y-6604000D01*
X15113000Y-6554000D01*
X15063000Y-6604000D01*
X15113000Y-6654000D01*
X15367000Y-5193500D02*
X15417000Y-5143500D01*
X15367000Y-5093500D01*
X15317000Y-5143500D01*
X15367000Y-5193500D01*
X15367000Y-6400000D02*
X15417000Y-6350000D01*
X15367000Y-6300000D01*
X15317000Y-6350000D01*
X15367000Y-6400000D01*
X15367000Y-6654000D02*
X15417000Y-6604000D01*
X15367000Y-6554000D01*
X15317000Y-6604000D01*
X15367000Y-6654000D01*
X15621000Y-5193500D02*
X15671000Y-5143500D01*
X15621000Y-5093500D01*
X15571000Y-5143500D01*
X15621000Y-5193500D01*
X15875000Y-5193500D02*
X15925000Y-5143500D01*
X15875000Y-5093500D01*
X15825000Y-5143500D01*
X15875000Y-5193500D01*
X16129000Y-5193500D02*
X16179000Y-5143500D01*
X16129000Y-5093500D01*
X16079000Y-5143500D01*
X16129000Y-5193500D01*
X16637000Y-5130000D02*
X16687000Y-5080000D01*
X16637000Y-5030000D01*
X16587000Y-5080000D01*
X16637000Y-5130000D01*
X17137000Y-5130000D02*
X17187000Y-5080000D01*
X17137000Y-5030000D01*
X17087000Y-5080000D01*
X17137000Y-5130000D01*
X17145000Y-6400000D02*
X17195000Y-6350000D01*
X17145000Y-6300000D01*
X17095000Y-6350000D01*
X17145000Y-6400000D01*
X17145000Y-6654000D02*
X17195000Y-6604000D01*
X17145000Y-6554000D01*
X17095000Y-6604000D01*
X17145000Y-6654000D01*
X17399000Y-6400000D02*
X17449000Y-6350000D01*
X17399000Y-6300000D01*
X17349000Y-6350000D01*
X17399000Y-6400000D01*
X17399000Y-6654000D02*
X17449000Y-6604000D01*
X17399000Y-6554000D01*
X17349000Y-6604000D01*
X17399000Y-6654000D01*
X17653000Y-5193500D02*
X17703000Y-5143500D01*
X17653000Y-5093500D01*
X17603000Y-5143500D01*
X17653000Y-5193500D01*
X17653000Y-6400000D02*
X17703000Y-6350000D01*
X17653000Y-6300000D01*
X17603000Y-6350000D01*
X17653000Y-6400000D01*
X17653000Y-6654000D02*
X17703000Y-6604000D01*
X17653000Y-6554000D01*
X17603000Y-6604000D01*
X17653000Y-6654000D01*
X17907000Y-5193500D02*
X17957000Y-5143500D01*
X17907000Y-5093500D01*
X17857000Y-5143500D01*
X17907000Y-5193500D01*
X17907500Y-8402020D02*
X17957500Y-8352020D01*
X17907500Y-8302020D01*
X17857500Y-8352020D01*
X17907500Y-8402020D01*
X17907500Y-8656020D02*
X17957500Y-8606020D01*
X17907500Y-8556020D01*
X17857500Y-8606020D01*
X17907500Y-8656020D01*
X18161000Y-5193500D02*
X18211000Y-5143500D01*
X18161000Y-5093500D01*
X18111000Y-5143500D01*
X18161000Y-5193500D01*
X18161500Y-8402020D02*
X18211500Y-8352020D01*
X18161500Y-8302020D01*
X18111500Y-8352020D01*
X18161500Y-8402020D01*
X18161500Y-8656020D02*
X18211500Y-8606020D01*
X18161500Y-8556020D01*
X18111500Y-8606020D01*
X18161500Y-8656020D01*
X18415000Y-5193500D02*
X18465000Y-5143500D01*
X18415000Y-5093500D01*
X18365000Y-5143500D01*
X18415000Y-5193500D01*
X18415500Y-8402020D02*
X18465500Y-8352020D01*
X18415500Y-8302020D01*
X18365500Y-8352020D01*
X18415500Y-8402020D01*
X18415500Y-8656020D02*
X18465500Y-8606020D01*
X18415500Y-8556020D01*
X18365500Y-8606020D01*
X18415500Y-8656020D01*
X18669500Y-8402020D02*
X18719500Y-8352020D01*
X18669500Y-8302020D01*
X18619500Y-8352020D01*
X18669500Y-8402020D01*
X18669500Y-8656020D02*
X18719500Y-8606020D01*
X18669500Y-8556020D01*
X18619500Y-8606020D01*
X18669500Y-8656020D01*
X18923000Y-5130000D02*
X18973000Y-5080000D01*
X18923000Y-5030000D01*
X18873000Y-5080000D01*
X18923000Y-5130000D01*
X18923500Y-8402020D02*
X18973500Y-8352020D01*
X18923500Y-8302020D01*
X18873500Y-8352020D01*
X18923500Y-8402020D01*
X18923500Y-8656020D02*
X18973500Y-8606020D01*
X18923500Y-8556020D01*
X18873500Y-8606020D01*
X18923500Y-8656020D01*
X19423000Y-5130000D02*
X19473000Y-5080000D01*
X19423000Y-5030000D01*
X19373000Y-5080000D01*
X19423000Y-5130000D01*
X19431000Y-6400000D02*
X19481000Y-6350000D01*
X19431000Y-6300000D01*
X19381000Y-6350000D01*
X19431000Y-6400000D01*
X19431000Y-6654000D02*
X19481000Y-6604000D01*
X19431000Y-6554000D01*
X19381000Y-6604000D01*
X19431000Y-6654000D01*
X19685000Y-6400000D02*
X19735000Y-6350000D01*
X19685000Y-6300000D01*
X19635000Y-6350000D01*
X19685000Y-6400000D01*
X19685000Y-6654000D02*
X19735000Y-6604000D01*
X19685000Y-6554000D01*
X19635000Y-6604000D01*
X19685000Y-6654000D01*
X19939000Y-5193500D02*
X19989000Y-5143500D01*
X19939000Y-5093500D01*
X19889000Y-5143500D01*
X19939000Y-5193500D01*
X19939000Y-6400000D02*
X19989000Y-6350000D01*
X19939000Y-6300000D01*
X19889000Y-6350000D01*
X19939000Y-6400000D01*
X19939000Y-6654000D02*
X19989000Y-6604000D01*
X19939000Y-6554000D01*
X19889000Y-6604000D01*
X19939000Y-6654000D01*
X19939000Y-9397200D02*
X19989000Y-9347200D01*
X19939000Y-9297200D01*
X19889000Y-9347200D01*
X19939000Y-9397200D01*
X20193000Y-5193500D02*
X20243000Y-5143500D01*
X20193000Y-5093500D01*
X20143000Y-5143500D01*
X20193000Y-5193500D01*
X20193000Y-9397200D02*
X20243000Y-9347200D01*
X20193000Y-9297200D01*
X20143000Y-9347200D01*
X20193000Y-9397200D01*
X20447000Y-5193500D02*
X20497000Y-5143500D01*
X20447000Y-5093500D01*
X20397000Y-5143500D01*
X20447000Y-5193500D01*
X20701000Y-5193500D02*
X20751000Y-5143500D01*
X20701000Y-5093500D01*
X20651000Y-5143500D01*
X20701000Y-5193500D01*
D17*
X8044000Y-10028800D02*
X8154000Y-10138800D01*
X8154000Y-10028800D02*
X8044000Y-10138800D01*
X8154000Y-10083800D02*
G75*
G03*
X8154000Y-10083800I-55000J0D01*
G01*
X8044000Y-10678800D02*
X8154000Y-10788800D01*
X8154000Y-10678800D02*
X8044000Y-10788800D01*
X8154000Y-10733800D02*
G75*
G03*
X8154000Y-10733800I-55000J0D01*
G01*
D18*
X15917100Y-10608500D02*
X16036100Y-10727500D01*
X16036100Y-10608500D02*
X15917100Y-10727500D01*
X15976600Y-10608500D02*
X15976600Y-10727500D01*
X15917100Y-10668000D02*
X16036100Y-10668000D01*
X16171100Y-10608500D02*
X16290100Y-10727500D01*
X16290100Y-10608500D02*
X16171100Y-10727500D01*
X16230600Y-10608500D02*
X16230600Y-10727500D01*
X16171100Y-10668000D02*
X16290100Y-10668000D01*
X16425100Y-10608500D02*
X16544100Y-10727500D01*
X16544100Y-10608500D02*
X16425100Y-10727500D01*
X16484600Y-10608500D02*
X16484600Y-10727500D01*
X16425100Y-10668000D02*
X16544100Y-10668000D01*
X16933100Y-10608500D02*
X17052100Y-10727500D01*
X17052100Y-10608500D02*
X16933100Y-10727500D01*
X16992600Y-10608500D02*
X16992600Y-10727500D01*
X16933100Y-10668000D02*
X17052100Y-10668000D01*
X17187100Y-10608500D02*
X17306100Y-10727500D01*
X17306100Y-10608500D02*
X17187100Y-10727500D01*
X17246600Y-10608500D02*
X17246600Y-10727500D01*
X17187100Y-10668000D02*
X17306100Y-10668000D01*
X17441100Y-10608500D02*
X17560100Y-10727500D01*
X17560100Y-10608500D02*
X17441100Y-10727500D01*
X17500600Y-10608500D02*
X17500600Y-10727500D01*
X17441100Y-10668000D02*
X17560100Y-10668000D01*
X17949100Y-10608500D02*
X18068100Y-10727500D01*
X18068100Y-10608500D02*
X17949100Y-10727500D01*
X18008600Y-10608500D02*
X18008600Y-10727500D01*
X17949100Y-10668000D02*
X18068100Y-10668000D01*
X18203100Y-10608500D02*
X18322100Y-10727500D01*
X18322100Y-10608500D02*
X18203100Y-10727500D01*
X18262600Y-10608500D02*
X18262600Y-10727500D01*
X18203100Y-10668000D02*
X18322100Y-10668000D01*
X18457100Y-10608500D02*
X18576100Y-10727500D01*
X18576100Y-10608500D02*
X18457100Y-10727500D01*
X18516600Y-10608500D02*
X18516600Y-10727500D01*
X18457100Y-10668000D02*
X18576100Y-10668000D01*
X18962560Y-10608500D02*
X19081560Y-10727500D01*
X19081560Y-10608500D02*
X18962560Y-10727500D01*
X19022060Y-10608500D02*
X19022060Y-10727500D01*
X18962560Y-10668000D02*
X19081560Y-10668000D01*
X19216560Y-10608500D02*
X19335560Y-10727500D01*
X19335560Y-10608500D02*
X19216560Y-10727500D01*
X19276060Y-10608500D02*
X19276060Y-10727500D01*
X19216560Y-10668000D02*
X19335560Y-10668000D01*
X19470560Y-10608500D02*
X19589560Y-10727500D01*
X19589560Y-10608500D02*
X19470560Y-10727500D01*
X19530060Y-10608500D02*
X19530060Y-10727500D01*
X19470560Y-10668000D02*
X19589560Y-10668000D01*
X19879500Y-8093900D02*
X19998500Y-8212900D01*
X19998500Y-8093900D02*
X19879500Y-8212900D01*
X19939000Y-8093900D02*
X19939000Y-8212900D01*
X19879500Y-8153400D02*
X19998500Y-8153400D01*
X19879500Y-8347900D02*
X19998500Y-8466900D01*
X19998500Y-8347900D02*
X19879500Y-8466900D01*
X19939000Y-8347900D02*
X19939000Y-8466900D01*
X19879500Y-8407400D02*
X19998500Y-8407400D01*
X19879500Y-8601900D02*
X19998500Y-8720900D01*
X19998500Y-8601900D02*
X19879500Y-8720900D01*
X19939000Y-8601900D02*
X19939000Y-8720900D01*
X19879500Y-8661400D02*
X19998500Y-8661400D01*
X19879500Y-8855900D02*
X19998500Y-8974900D01*
X19998500Y-8855900D02*
X19879500Y-8974900D01*
X19939000Y-8855900D02*
X19939000Y-8974900D01*
X19879500Y-8915400D02*
X19998500Y-8915400D01*
X19978560Y-10608500D02*
X20097560Y-10727500D01*
X20097560Y-10608500D02*
X19978560Y-10727500D01*
X20038060Y-10608500D02*
X20038060Y-10727500D01*
X19978560Y-10668000D02*
X20097560Y-10668000D01*
X20232560Y-10608500D02*
X20351560Y-10727500D01*
X20351560Y-10608500D02*
X20232560Y-10727500D01*
X20292060Y-10608500D02*
X20292060Y-10727500D01*
X20232560Y-10668000D02*
X20351560Y-10668000D01*
X20486560Y-10608500D02*
X20605560Y-10727500D01*
X20605560Y-10608500D02*
X20486560Y-10727500D01*
X20546060Y-10608500D02*
X20546060Y-10727500D01*
X20486560Y-10668000D02*
X20605560Y-10668000D01*
X20641500Y-8093900D02*
X20760500Y-8212900D01*
X20760500Y-8093900D02*
X20641500Y-8212900D01*
X20701000Y-8093900D02*
X20701000Y-8212900D01*
X20641500Y-8153400D02*
X20760500Y-8153400D01*
X20641500Y-8347900D02*
X20760500Y-8466900D01*
X20760500Y-8347900D02*
X20641500Y-8466900D01*
X20701000Y-8347900D02*
X20701000Y-8466900D01*
X20641500Y-8407400D02*
X20760500Y-8407400D01*
X20641500Y-8601900D02*
X20760500Y-8720900D01*
X20760500Y-8601900D02*
X20641500Y-8720900D01*
X20701000Y-8601900D02*
X20701000Y-8720900D01*
X20641500Y-8661400D02*
X20760500Y-8661400D01*
X20641500Y-8855900D02*
X20760500Y-8974900D01*
X20760500Y-8855900D02*
X20641500Y-8974900D01*
X20701000Y-8855900D02*
X20701000Y-8974900D01*
X20641500Y-8915400D02*
X20760500Y-8915400D01*
D19*
X7682000Y-7809000D02*
X7812000Y-7939000D01*
X7812000Y-7809000D02*
X7682000Y-7939000D01*
X7792962Y-7919962D02*
X7792962Y-7828038D01*
X7701038Y-7828038D01*
X7701038Y-7919962D01*
X7792962Y-7919962D01*
X7682000Y-8309000D02*
X7812000Y-8439000D01*
X7812000Y-8309000D02*
X7682000Y-8439000D01*
X7792962Y-8419962D02*
X7792962Y-8328038D01*
X7701038Y-8328038D01*
X7701038Y-8419962D01*
X7792962Y-8419962D01*
X7682000Y-8809000D02*
X7812000Y-8939000D01*
X7812000Y-8809000D02*
X7682000Y-8939000D01*
X7792962Y-8919962D02*
X7792962Y-8828038D01*
X7701038Y-8828038D01*
X7701038Y-8919962D01*
X7792962Y-8919962D01*
X7682000Y-9309000D02*
X7812000Y-9439000D01*
X7812000Y-9309000D02*
X7682000Y-9439000D01*
X7792962Y-9419962D02*
X7792962Y-9328038D01*
X7701038Y-9328038D01*
X7701038Y-9419962D01*
X7792962Y-9419962D01*
D11*
X6854119Y-11620976D02*
X6854119Y-11420976D01*
X6901738Y-11420976D01*
X6930309Y-11430500D01*
X6949357Y-11449548D01*
X6958881Y-11468595D01*
X6968405Y-11506690D01*
X6968405Y-11535262D01*
X6958881Y-11573357D01*
X6949357Y-11592405D01*
X6930309Y-11611452D01*
X6901738Y-11620976D01*
X6854119Y-11620976D01*
X7054119Y-11620976D02*
X7054119Y-11487643D01*
X7054119Y-11525738D02*
X7063643Y-11506690D01*
X7073167Y-11497167D01*
X7092214Y-11487643D01*
X7111262Y-11487643D01*
X7177928Y-11620976D02*
X7177928Y-11487643D01*
X7177928Y-11420976D02*
X7168405Y-11430500D01*
X7177928Y-11440024D01*
X7187452Y-11430500D01*
X7177928Y-11420976D01*
X7177928Y-11440024D01*
X7301738Y-11620976D02*
X7282690Y-11611452D01*
X7273167Y-11592405D01*
X7273167Y-11420976D01*
X7406500Y-11620976D02*
X7387452Y-11611452D01*
X7377928Y-11592405D01*
X7377928Y-11420976D01*
X7635071Y-11620976D02*
X7635071Y-11420976D01*
X7701738Y-11563833D01*
X7768405Y-11420976D01*
X7768405Y-11620976D01*
X7949357Y-11620976D02*
X7949357Y-11516214D01*
X7939833Y-11497167D01*
X7920786Y-11487643D01*
X7882690Y-11487643D01*
X7863643Y-11497167D01*
X7949357Y-11611452D02*
X7930309Y-11620976D01*
X7882690Y-11620976D01*
X7863643Y-11611452D01*
X7854119Y-11592405D01*
X7854119Y-11573357D01*
X7863643Y-11554309D01*
X7882690Y-11544786D01*
X7930309Y-11544786D01*
X7949357Y-11535262D01*
X8044595Y-11487643D02*
X8044595Y-11687643D01*
X8044595Y-11497167D02*
X8063643Y-11487643D01*
X8101738Y-11487643D01*
X8120786Y-11497167D01*
X8130309Y-11506690D01*
X8139833Y-11525738D01*
X8139833Y-11582881D01*
X8130309Y-11601928D01*
X8120786Y-11611452D01*
X8101738Y-11620976D01*
X8063643Y-11620976D01*
X8044595Y-11611452D01*
X8225548Y-11601928D02*
X8235071Y-11611452D01*
X8225548Y-11620976D01*
X8216024Y-11611452D01*
X8225548Y-11601928D01*
X8225548Y-11620976D01*
X8225548Y-11497167D02*
X8235071Y-11506690D01*
X8225548Y-11516214D01*
X8216024Y-11506690D01*
X8225548Y-11497167D01*
X8225548Y-11516214D01*
D12*
X6556500Y-11930500D02*
X6596500Y-11970500D01*
X6596500Y-11930500D02*
X6556500Y-11970500D01*
D11*
X6892214Y-11840976D02*
X6911262Y-11840976D01*
X6930309Y-11850500D01*
X6939833Y-11860024D01*
X6949357Y-11879071D01*
X6958881Y-11917167D01*
X6958881Y-11964786D01*
X6949357Y-12002881D01*
X6939833Y-12021928D01*
X6930309Y-12031452D01*
X6911262Y-12040976D01*
X6892214Y-12040976D01*
X6873167Y-12031452D01*
X6863643Y-12021928D01*
X6854119Y-12002881D01*
X6844595Y-11964786D01*
X6844595Y-11917167D01*
X6854119Y-11879071D01*
X6863643Y-11860024D01*
X6873167Y-11850500D01*
X6892214Y-11840976D01*
X7044595Y-12021928D02*
X7054119Y-12031452D01*
X7044595Y-12040976D01*
X7035071Y-12031452D01*
X7044595Y-12021928D01*
X7044595Y-12040976D01*
X7225548Y-11907643D02*
X7225548Y-12040976D01*
X7177928Y-11831452D02*
X7130309Y-11974309D01*
X7254119Y-11974309D01*
X7368405Y-11840976D02*
X7387452Y-11840976D01*
X7406500Y-11850500D01*
X7416024Y-11860024D01*
X7425548Y-11879071D01*
X7435071Y-11917167D01*
X7435071Y-11964786D01*
X7425548Y-12002881D01*
X7416024Y-12021928D01*
X7406500Y-12031452D01*
X7387452Y-12040976D01*
X7368405Y-12040976D01*
X7349357Y-12031452D01*
X7339833Y-12021928D01*
X7330309Y-12002881D01*
X7320786Y-11964786D01*
X7320786Y-11917167D01*
X7330309Y-11879071D01*
X7339833Y-11860024D01*
X7349357Y-11850500D01*
X7368405Y-11840976D01*
X7558881Y-11840976D02*
X7577928Y-11840976D01*
X7596976Y-11850500D01*
X7606500Y-11860024D01*
X7616024Y-11879071D01*
X7625548Y-11917167D01*
X7625548Y-11964786D01*
X7616024Y-12002881D01*
X7606500Y-12021928D01*
X7596976Y-12031452D01*
X7577928Y-12040976D01*
X7558881Y-12040976D01*
X7539833Y-12031452D01*
X7530309Y-12021928D01*
X7520786Y-12002881D01*
X7511262Y-11964786D01*
X7511262Y-11917167D01*
X7520786Y-11879071D01*
X7530309Y-11860024D01*
X7539833Y-11850500D01*
X7558881Y-11840976D01*
X7711262Y-12040976D02*
X7711262Y-11907643D01*
X7711262Y-11926690D02*
X7720786Y-11917167D01*
X7739833Y-11907643D01*
X7768405Y-11907643D01*
X7787452Y-11917167D01*
X7796976Y-11936214D01*
X7796976Y-12040976D01*
X7796976Y-11936214D02*
X7806500Y-11917167D01*
X7825548Y-11907643D01*
X7854119Y-11907643D01*
X7873167Y-11917167D01*
X7882690Y-11936214D01*
X7882690Y-12040976D01*
X7977928Y-12040976D02*
X7977928Y-11907643D01*
X7977928Y-11926690D02*
X7987452Y-11917167D01*
X8006500Y-11907643D01*
X8035071Y-11907643D01*
X8054119Y-11917167D01*
X8063643Y-11936214D01*
X8063643Y-12040976D01*
X8063643Y-11936214D02*
X8073167Y-11917167D01*
X8092214Y-11907643D01*
X8120786Y-11907643D01*
X8139833Y-11917167D01*
X8149357Y-11936214D01*
X8149357Y-12040976D01*
X8539833Y-11831452D02*
X8368405Y-12088595D01*
X8796976Y-11840976D02*
X8816024Y-11840976D01*
X8835071Y-11850500D01*
X8844595Y-11860024D01*
X8854119Y-11879071D01*
X8863643Y-11917167D01*
X8863643Y-11964786D01*
X8854119Y-12002881D01*
X8844595Y-12021928D01*
X8835071Y-12031452D01*
X8816024Y-12040976D01*
X8796976Y-12040976D01*
X8777929Y-12031452D01*
X8768405Y-12021928D01*
X8758881Y-12002881D01*
X8749357Y-11964786D01*
X8749357Y-11917167D01*
X8758881Y-11879071D01*
X8768405Y-11860024D01*
X8777929Y-11850500D01*
X8796976Y-11840976D01*
X8949357Y-12021928D02*
X8958881Y-12031452D01*
X8949357Y-12040976D01*
X8939833Y-12031452D01*
X8949357Y-12021928D01*
X8949357Y-12040976D01*
X9082690Y-11840976D02*
X9101738Y-11840976D01*
X9120786Y-11850500D01*
X9130310Y-11860024D01*
X9139833Y-11879071D01*
X9149357Y-11917167D01*
X9149357Y-11964786D01*
X9139833Y-12002881D01*
X9130310Y-12021928D01*
X9120786Y-12031452D01*
X9101738Y-12040976D01*
X9082690Y-12040976D01*
X9063643Y-12031452D01*
X9054119Y-12021928D01*
X9044595Y-12002881D01*
X9035071Y-11964786D01*
X9035071Y-11917167D01*
X9044595Y-11879071D01*
X9054119Y-11860024D01*
X9063643Y-11850500D01*
X9082690Y-11840976D01*
X9339833Y-12040976D02*
X9225548Y-12040976D01*
X9282690Y-12040976D02*
X9282690Y-11840976D01*
X9263643Y-11869548D01*
X9244595Y-11888595D01*
X9225548Y-11898119D01*
X9520786Y-11840976D02*
X9425548Y-11840976D01*
X9416024Y-11936214D01*
X9425548Y-11926690D01*
X9444595Y-11917167D01*
X9492214Y-11917167D01*
X9511262Y-11926690D01*
X9520786Y-11936214D01*
X9530310Y-11955262D01*
X9530310Y-12002881D01*
X9520786Y-12021928D01*
X9511262Y-12031452D01*
X9492214Y-12040976D01*
X9444595Y-12040976D01*
X9425548Y-12031452D01*
X9416024Y-12021928D01*
X9596976Y-11840976D02*
X9730310Y-11840976D01*
X9644595Y-12040976D01*
X9796976Y-11840976D02*
X9796976Y-11879071D01*
X9873167Y-11840976D02*
X9873167Y-11879071D01*
X10168405Y-12117167D02*
X10158881Y-12107643D01*
X10139833Y-12079071D01*
X10130310Y-12060024D01*
X10120786Y-12031452D01*
X10111262Y-11983833D01*
X10111262Y-11945738D01*
X10120786Y-11898119D01*
X10130310Y-11869548D01*
X10139833Y-11850500D01*
X10158881Y-11821928D01*
X10168405Y-11812405D01*
X10349357Y-12040976D02*
X10235071Y-12040976D01*
X10292214Y-12040976D02*
X10292214Y-11840976D01*
X10273167Y-11869548D01*
X10254119Y-11888595D01*
X10235071Y-11898119D01*
X10539833Y-12040976D02*
X10425548Y-12040976D01*
X10482690Y-12040976D02*
X10482690Y-11840976D01*
X10463643Y-11869548D01*
X10444595Y-11888595D01*
X10425548Y-11898119D01*
X10777929Y-12040976D02*
X10777929Y-11840976D01*
X10863643Y-12040976D02*
X10863643Y-11936214D01*
X10854119Y-11917167D01*
X10835071Y-11907643D01*
X10806500Y-11907643D01*
X10787452Y-11917167D01*
X10777929Y-11926690D01*
X10987452Y-12040976D02*
X10968405Y-12031452D01*
X10958881Y-12021928D01*
X10949357Y-12002881D01*
X10949357Y-11945738D01*
X10958881Y-11926690D01*
X10968405Y-11917167D01*
X10987452Y-11907643D01*
X11016024Y-11907643D01*
X11035071Y-11917167D01*
X11044595Y-11926690D01*
X11054119Y-11945738D01*
X11054119Y-12002881D01*
X11044595Y-12021928D01*
X11035071Y-12031452D01*
X11016024Y-12040976D01*
X10987452Y-12040976D01*
X11168405Y-12040976D02*
X11149357Y-12031452D01*
X11139833Y-12012405D01*
X11139833Y-11840976D01*
X11320786Y-12031452D02*
X11301738Y-12040976D01*
X11263643Y-12040976D01*
X11244595Y-12031452D01*
X11235071Y-12012405D01*
X11235071Y-11936214D01*
X11244595Y-11917167D01*
X11263643Y-11907643D01*
X11301738Y-11907643D01*
X11320786Y-11917167D01*
X11330309Y-11936214D01*
X11330309Y-11955262D01*
X11235071Y-11974309D01*
X11406500Y-12031452D02*
X11425548Y-12040976D01*
X11463643Y-12040976D01*
X11482690Y-12031452D01*
X11492214Y-12012405D01*
X11492214Y-12002881D01*
X11482690Y-11983833D01*
X11463643Y-11974309D01*
X11435071Y-11974309D01*
X11416024Y-11964786D01*
X11406500Y-11945738D01*
X11406500Y-11936214D01*
X11416024Y-11917167D01*
X11435071Y-11907643D01*
X11463643Y-11907643D01*
X11482690Y-11917167D01*
X11558881Y-12117167D02*
X11568405Y-12107643D01*
X11587452Y-12079071D01*
X11596976Y-12060024D01*
X11606500Y-12031452D01*
X11616024Y-11983833D01*
X11616024Y-11945738D01*
X11606500Y-11898119D01*
X11596976Y-11869548D01*
X11587452Y-11850500D01*
X11568405Y-11821928D01*
X11558881Y-11812405D01*
D13*
X6596500Y-12214500D02*
G75*
G03*
X6596500Y-12214500I-37500J0D01*
G01*
D11*
X6892214Y-12104976D02*
X6911262Y-12104976D01*
X6930309Y-12114500D01*
X6939833Y-12124024D01*
X6949357Y-12143071D01*
X6958881Y-12181167D01*
X6958881Y-12228786D01*
X6949357Y-12266881D01*
X6939833Y-12285928D01*
X6930309Y-12295452D01*
X6911262Y-12304976D01*
X6892214Y-12304976D01*
X6873167Y-12295452D01*
X6863643Y-12285928D01*
X6854119Y-12266881D01*
X6844595Y-12228786D01*
X6844595Y-12181167D01*
X6854119Y-12143071D01*
X6863643Y-12124024D01*
X6873167Y-12114500D01*
X6892214Y-12104976D01*
X7044595Y-12285928D02*
X7054119Y-12295452D01*
X7044595Y-12304976D01*
X7035071Y-12295452D01*
X7044595Y-12285928D01*
X7044595Y-12304976D01*
X7120786Y-12104976D02*
X7254119Y-12104976D01*
X7168405Y-12304976D01*
X7425548Y-12104976D02*
X7330309Y-12104976D01*
X7320786Y-12200214D01*
X7330309Y-12190690D01*
X7349357Y-12181167D01*
X7396976Y-12181167D01*
X7416024Y-12190690D01*
X7425548Y-12200214D01*
X7435071Y-12219262D01*
X7435071Y-12266881D01*
X7425548Y-12285928D01*
X7416024Y-12295452D01*
X7396976Y-12304976D01*
X7349357Y-12304976D01*
X7330309Y-12295452D01*
X7320786Y-12285928D01*
X7558881Y-12104976D02*
X7577928Y-12104976D01*
X7596976Y-12114500D01*
X7606500Y-12124024D01*
X7616024Y-12143071D01*
X7625548Y-12181167D01*
X7625548Y-12228786D01*
X7616024Y-12266881D01*
X7606500Y-12285928D01*
X7596976Y-12295452D01*
X7577928Y-12304976D01*
X7558881Y-12304976D01*
X7539833Y-12295452D01*
X7530309Y-12285928D01*
X7520786Y-12266881D01*
X7511262Y-12228786D01*
X7511262Y-12181167D01*
X7520786Y-12143071D01*
X7530309Y-12124024D01*
X7539833Y-12114500D01*
X7558881Y-12104976D01*
X7711262Y-12304976D02*
X7711262Y-12171643D01*
X7711262Y-12190690D02*
X7720786Y-12181167D01*
X7739833Y-12171643D01*
X7768405Y-12171643D01*
X7787452Y-12181167D01*
X7796976Y-12200214D01*
X7796976Y-12304976D01*
X7796976Y-12200214D02*
X7806500Y-12181167D01*
X7825548Y-12171643D01*
X7854119Y-12171643D01*
X7873167Y-12181167D01*
X7882690Y-12200214D01*
X7882690Y-12304976D01*
X7977928Y-12304976D02*
X7977928Y-12171643D01*
X7977928Y-12190690D02*
X7987452Y-12181167D01*
X8006500Y-12171643D01*
X8035071Y-12171643D01*
X8054119Y-12181167D01*
X8063643Y-12200214D01*
X8063643Y-12304976D01*
X8063643Y-12200214D02*
X8073167Y-12181167D01*
X8092214Y-12171643D01*
X8120786Y-12171643D01*
X8139833Y-12181167D01*
X8149357Y-12200214D01*
X8149357Y-12304976D01*
X8539833Y-12095452D02*
X8368405Y-12352595D01*
X8796976Y-12104976D02*
X8816024Y-12104976D01*
X8835071Y-12114500D01*
X8844595Y-12124024D01*
X8854119Y-12143071D01*
X8863643Y-12181167D01*
X8863643Y-12228786D01*
X8854119Y-12266881D01*
X8844595Y-12285928D01*
X8835071Y-12295452D01*
X8816024Y-12304976D01*
X8796976Y-12304976D01*
X8777929Y-12295452D01*
X8768405Y-12285928D01*
X8758881Y-12266881D01*
X8749357Y-12228786D01*
X8749357Y-12181167D01*
X8758881Y-12143071D01*
X8768405Y-12124024D01*
X8777929Y-12114500D01*
X8796976Y-12104976D01*
X8949357Y-12285928D02*
X8958881Y-12295452D01*
X8949357Y-12304976D01*
X8939833Y-12295452D01*
X8949357Y-12285928D01*
X8949357Y-12304976D01*
X9082690Y-12104976D02*
X9101738Y-12104976D01*
X9120786Y-12114500D01*
X9130310Y-12124024D01*
X9139833Y-12143071D01*
X9149357Y-12181167D01*
X9149357Y-12228786D01*
X9139833Y-12266881D01*
X9130310Y-12285928D01*
X9120786Y-12295452D01*
X9101738Y-12304976D01*
X9082690Y-12304976D01*
X9063643Y-12295452D01*
X9054119Y-12285928D01*
X9044595Y-12266881D01*
X9035071Y-12228786D01*
X9035071Y-12181167D01*
X9044595Y-12143071D01*
X9054119Y-12124024D01*
X9063643Y-12114500D01*
X9082690Y-12104976D01*
X9225548Y-12124024D02*
X9235071Y-12114500D01*
X9254119Y-12104976D01*
X9301738Y-12104976D01*
X9320786Y-12114500D01*
X9330310Y-12124024D01*
X9339833Y-12143071D01*
X9339833Y-12162119D01*
X9330310Y-12190690D01*
X9216024Y-12304976D01*
X9339833Y-12304976D01*
X9435071Y-12304976D02*
X9473167Y-12304976D01*
X9492214Y-12295452D01*
X9501738Y-12285928D01*
X9520786Y-12257357D01*
X9530310Y-12219262D01*
X9530310Y-12143071D01*
X9520786Y-12124024D01*
X9511262Y-12114500D01*
X9492214Y-12104976D01*
X9454119Y-12104976D01*
X9435071Y-12114500D01*
X9425548Y-12124024D01*
X9416024Y-12143071D01*
X9416024Y-12190690D01*
X9425548Y-12209738D01*
X9435071Y-12219262D01*
X9454119Y-12228786D01*
X9492214Y-12228786D01*
X9511262Y-12219262D01*
X9520786Y-12209738D01*
X9530310Y-12190690D01*
X9711262Y-12104976D02*
X9616024Y-12104976D01*
X9606500Y-12200214D01*
X9616024Y-12190690D01*
X9635071Y-12181167D01*
X9682690Y-12181167D01*
X9701738Y-12190690D01*
X9711262Y-12200214D01*
X9720786Y-12219262D01*
X9720786Y-12266881D01*
X9711262Y-12285928D01*
X9701738Y-12295452D01*
X9682690Y-12304976D01*
X9635071Y-12304976D01*
X9616024Y-12295452D01*
X9606500Y-12285928D01*
X9796976Y-12104976D02*
X9796976Y-12143071D01*
X9873167Y-12104976D02*
X9873167Y-12143071D01*
X10168405Y-12381167D02*
X10158881Y-12371643D01*
X10139833Y-12343071D01*
X10130310Y-12324024D01*
X10120786Y-12295452D01*
X10111262Y-12247833D01*
X10111262Y-12209738D01*
X10120786Y-12162119D01*
X10130310Y-12133548D01*
X10139833Y-12114500D01*
X10158881Y-12085928D01*
X10168405Y-12076405D01*
X10254119Y-12304976D02*
X10292214Y-12304976D01*
X10311262Y-12295452D01*
X10320786Y-12285928D01*
X10339833Y-12257357D01*
X10349357Y-12219262D01*
X10349357Y-12143071D01*
X10339833Y-12124024D01*
X10330310Y-12114500D01*
X10311262Y-12104976D01*
X10273167Y-12104976D01*
X10254119Y-12114500D01*
X10244595Y-12124024D01*
X10235071Y-12143071D01*
X10235071Y-12190690D01*
X10244595Y-12209738D01*
X10254119Y-12219262D01*
X10273167Y-12228786D01*
X10311262Y-12228786D01*
X10330310Y-12219262D01*
X10339833Y-12209738D01*
X10349357Y-12190690D01*
X10520786Y-12104976D02*
X10482690Y-12104976D01*
X10463643Y-12114500D01*
X10454119Y-12124024D01*
X10435071Y-12152595D01*
X10425548Y-12190690D01*
X10425548Y-12266881D01*
X10435071Y-12285928D01*
X10444595Y-12295452D01*
X10463643Y-12304976D01*
X10501738Y-12304976D01*
X10520786Y-12295452D01*
X10530310Y-12285928D01*
X10539833Y-12266881D01*
X10539833Y-12219262D01*
X10530310Y-12200214D01*
X10520786Y-12190690D01*
X10501738Y-12181167D01*
X10463643Y-12181167D01*
X10444595Y-12190690D01*
X10435071Y-12200214D01*
X10425548Y-12219262D01*
X10777929Y-12304976D02*
X10777929Y-12104976D01*
X10863643Y-12304976D02*
X10863643Y-12200214D01*
X10854119Y-12181167D01*
X10835071Y-12171643D01*
X10806500Y-12171643D01*
X10787452Y-12181167D01*
X10777929Y-12190690D01*
X10987452Y-12304976D02*
X10968405Y-12295452D01*
X10958881Y-12285928D01*
X10949357Y-12266881D01*
X10949357Y-12209738D01*
X10958881Y-12190690D01*
X10968405Y-12181167D01*
X10987452Y-12171643D01*
X11016024Y-12171643D01*
X11035071Y-12181167D01*
X11044595Y-12190690D01*
X11054119Y-12209738D01*
X11054119Y-12266881D01*
X11044595Y-12285928D01*
X11035071Y-12295452D01*
X11016024Y-12304976D01*
X10987452Y-12304976D01*
X11168405Y-12304976D02*
X11149357Y-12295452D01*
X11139833Y-12276405D01*
X11139833Y-12104976D01*
X11320786Y-12295452D02*
X11301738Y-12304976D01*
X11263643Y-12304976D01*
X11244595Y-12295452D01*
X11235071Y-12276405D01*
X11235071Y-12200214D01*
X11244595Y-12181167D01*
X11263643Y-12171643D01*
X11301738Y-12171643D01*
X11320786Y-12181167D01*
X11330309Y-12200214D01*
X11330309Y-12219262D01*
X11235071Y-12238309D01*
X11406500Y-12295452D02*
X11425548Y-12304976D01*
X11463643Y-12304976D01*
X11482690Y-12295452D01*
X11492214Y-12276405D01*
X11492214Y-12266881D01*
X11482690Y-12247833D01*
X11463643Y-12238309D01*
X11435071Y-12238309D01*
X11416024Y-12228786D01*
X11406500Y-12209738D01*
X11406500Y-12200214D01*
X11416024Y-12181167D01*
X11435071Y-12171643D01*
X11463643Y-12171643D01*
X11482690Y-12181167D01*
X11558881Y-12381167D02*
X11568405Y-12371643D01*
X11587452Y-12343071D01*
X11596976Y-12324024D01*
X11606500Y-12295452D01*
X11616024Y-12247833D01*
X11616024Y-12209738D01*
X11606500Y-12162119D01*
X11596976Y-12133548D01*
X11587452Y-12114500D01*
X11568405Y-12085928D01*
X11558881Y-12076405D01*
D14*
X6558400Y-12440400D02*
X6558400Y-12516600D01*
X6520300Y-12478500D02*
X6596500Y-12478500D01*
D11*
X6892214Y-12368976D02*
X6911262Y-12368976D01*
X6930309Y-12378500D01*
X6939833Y-12388024D01*
X6949357Y-12407071D01*
X6958881Y-12445167D01*
X6958881Y-12492786D01*
X6949357Y-12530881D01*
X6939833Y-12549928D01*
X6930309Y-12559452D01*
X6911262Y-12568976D01*
X6892214Y-12568976D01*
X6873167Y-12559452D01*
X6863643Y-12549928D01*
X6854119Y-12530881D01*
X6844595Y-12492786D01*
X6844595Y-12445167D01*
X6854119Y-12407071D01*
X6863643Y-12388024D01*
X6873167Y-12378500D01*
X6892214Y-12368976D01*
X7044595Y-12549928D02*
X7054119Y-12559452D01*
X7044595Y-12568976D01*
X7035071Y-12559452D01*
X7044595Y-12549928D01*
X7044595Y-12568976D01*
X7120786Y-12368976D02*
X7254119Y-12368976D01*
X7168405Y-12568976D01*
X7416024Y-12368976D02*
X7377928Y-12368976D01*
X7358881Y-12378500D01*
X7349357Y-12388024D01*
X7330309Y-12416595D01*
X7320786Y-12454690D01*
X7320786Y-12530881D01*
X7330309Y-12549928D01*
X7339833Y-12559452D01*
X7358881Y-12568976D01*
X7396976Y-12568976D01*
X7416024Y-12559452D01*
X7425548Y-12549928D01*
X7435071Y-12530881D01*
X7435071Y-12483262D01*
X7425548Y-12464214D01*
X7416024Y-12454690D01*
X7396976Y-12445167D01*
X7358881Y-12445167D01*
X7339833Y-12454690D01*
X7330309Y-12464214D01*
X7320786Y-12483262D01*
X7511262Y-12388024D02*
X7520786Y-12378500D01*
X7539833Y-12368976D01*
X7587452Y-12368976D01*
X7606500Y-12378500D01*
X7616024Y-12388024D01*
X7625548Y-12407071D01*
X7625548Y-12426119D01*
X7616024Y-12454690D01*
X7501738Y-12568976D01*
X7625548Y-12568976D01*
X7711262Y-12568976D02*
X7711262Y-12435643D01*
X7711262Y-12454690D02*
X7720786Y-12445167D01*
X7739833Y-12435643D01*
X7768405Y-12435643D01*
X7787452Y-12445167D01*
X7796976Y-12464214D01*
X7796976Y-12568976D01*
X7796976Y-12464214D02*
X7806500Y-12445167D01*
X7825548Y-12435643D01*
X7854119Y-12435643D01*
X7873167Y-12445167D01*
X7882690Y-12464214D01*
X7882690Y-12568976D01*
X7977928Y-12568976D02*
X7977928Y-12435643D01*
X7977928Y-12454690D02*
X7987452Y-12445167D01*
X8006500Y-12435643D01*
X8035071Y-12435643D01*
X8054119Y-12445167D01*
X8063643Y-12464214D01*
X8063643Y-12568976D01*
X8063643Y-12464214D02*
X8073167Y-12445167D01*
X8092214Y-12435643D01*
X8120786Y-12435643D01*
X8139833Y-12445167D01*
X8149357Y-12464214D01*
X8149357Y-12568976D01*
X8539833Y-12359452D02*
X8368405Y-12616595D01*
X8796976Y-12368976D02*
X8816024Y-12368976D01*
X8835071Y-12378500D01*
X8844595Y-12388024D01*
X8854119Y-12407071D01*
X8863643Y-12445167D01*
X8863643Y-12492786D01*
X8854119Y-12530881D01*
X8844595Y-12549928D01*
X8835071Y-12559452D01*
X8816024Y-12568976D01*
X8796976Y-12568976D01*
X8777929Y-12559452D01*
X8768405Y-12549928D01*
X8758881Y-12530881D01*
X8749357Y-12492786D01*
X8749357Y-12445167D01*
X8758881Y-12407071D01*
X8768405Y-12388024D01*
X8777929Y-12378500D01*
X8796976Y-12368976D01*
X8949357Y-12549928D02*
X8958881Y-12559452D01*
X8949357Y-12568976D01*
X8939833Y-12559452D01*
X8949357Y-12549928D01*
X8949357Y-12568976D01*
X9082690Y-12368976D02*
X9101738Y-12368976D01*
X9120786Y-12378500D01*
X9130310Y-12388024D01*
X9139833Y-12407071D01*
X9149357Y-12445167D01*
X9149357Y-12492786D01*
X9139833Y-12530881D01*
X9130310Y-12549928D01*
X9120786Y-12559452D01*
X9101738Y-12568976D01*
X9082690Y-12568976D01*
X9063643Y-12559452D01*
X9054119Y-12549928D01*
X9044595Y-12530881D01*
X9035071Y-12492786D01*
X9035071Y-12445167D01*
X9044595Y-12407071D01*
X9054119Y-12388024D01*
X9063643Y-12378500D01*
X9082690Y-12368976D01*
X9216024Y-12368976D02*
X9339833Y-12368976D01*
X9273167Y-12445167D01*
X9301738Y-12445167D01*
X9320786Y-12454690D01*
X9330310Y-12464214D01*
X9339833Y-12483262D01*
X9339833Y-12530881D01*
X9330310Y-12549928D01*
X9320786Y-12559452D01*
X9301738Y-12568976D01*
X9244595Y-12568976D01*
X9225548Y-12559452D01*
X9216024Y-12549928D01*
X9463643Y-12368976D02*
X9482690Y-12368976D01*
X9501738Y-12378500D01*
X9511262Y-12388024D01*
X9520786Y-12407071D01*
X9530310Y-12445167D01*
X9530310Y-12492786D01*
X9520786Y-12530881D01*
X9511262Y-12549928D01*
X9501738Y-12559452D01*
X9482690Y-12568976D01*
X9463643Y-12568976D01*
X9444595Y-12559452D01*
X9435071Y-12549928D01*
X9425548Y-12530881D01*
X9416024Y-12492786D01*
X9416024Y-12445167D01*
X9425548Y-12407071D01*
X9435071Y-12388024D01*
X9444595Y-12378500D01*
X9463643Y-12368976D01*
X9654119Y-12368976D02*
X9673167Y-12368976D01*
X9692214Y-12378500D01*
X9701738Y-12388024D01*
X9711262Y-12407071D01*
X9720786Y-12445167D01*
X9720786Y-12492786D01*
X9711262Y-12530881D01*
X9701738Y-12549928D01*
X9692214Y-12559452D01*
X9673167Y-12568976D01*
X9654119Y-12568976D01*
X9635071Y-12559452D01*
X9625548Y-12549928D01*
X9616024Y-12530881D01*
X9606500Y-12492786D01*
X9606500Y-12445167D01*
X9616024Y-12407071D01*
X9625548Y-12388024D01*
X9635071Y-12378500D01*
X9654119Y-12368976D01*
X9796976Y-12368976D02*
X9796976Y-12407071D01*
X9873167Y-12368976D02*
X9873167Y-12407071D01*
X10168405Y-12645167D02*
X10158881Y-12635643D01*
X10139833Y-12607071D01*
X10130310Y-12588024D01*
X10120786Y-12559452D01*
X10111262Y-12511833D01*
X10111262Y-12473738D01*
X10120786Y-12426119D01*
X10130310Y-12397548D01*
X10139833Y-12378500D01*
X10158881Y-12349928D01*
X10168405Y-12340405D01*
X10330310Y-12368976D02*
X10292214Y-12368976D01*
X10273167Y-12378500D01*
X10263643Y-12388024D01*
X10244595Y-12416595D01*
X10235071Y-12454690D01*
X10235071Y-12530881D01*
X10244595Y-12549928D01*
X10254119Y-12559452D01*
X10273167Y-12568976D01*
X10311262Y-12568976D01*
X10330310Y-12559452D01*
X10339833Y-12549928D01*
X10349357Y-12530881D01*
X10349357Y-12483262D01*
X10339833Y-12464214D01*
X10330310Y-12454690D01*
X10311262Y-12445167D01*
X10273167Y-12445167D01*
X10254119Y-12454690D01*
X10244595Y-12464214D01*
X10235071Y-12483262D01*
X10587452Y-12568976D02*
X10587452Y-12368976D01*
X10673167Y-12568976D02*
X10673167Y-12464214D01*
X10663643Y-12445167D01*
X10644595Y-12435643D01*
X10616024Y-12435643D01*
X10596976Y-12445167D01*
X10587452Y-12454690D01*
X10796976Y-12568976D02*
X10777929Y-12559452D01*
X10768405Y-12549928D01*
X10758881Y-12530881D01*
X10758881Y-12473738D01*
X10768405Y-12454690D01*
X10777929Y-12445167D01*
X10796976Y-12435643D01*
X10825548Y-12435643D01*
X10844595Y-12445167D01*
X10854119Y-12454690D01*
X10863643Y-12473738D01*
X10863643Y-12530881D01*
X10854119Y-12549928D01*
X10844595Y-12559452D01*
X10825548Y-12568976D01*
X10796976Y-12568976D01*
X10977929Y-12568976D02*
X10958881Y-12559452D01*
X10949357Y-12540405D01*
X10949357Y-12368976D01*
X11130310Y-12559452D02*
X11111262Y-12568976D01*
X11073167Y-12568976D01*
X11054119Y-12559452D01*
X11044595Y-12540405D01*
X11044595Y-12464214D01*
X11054119Y-12445167D01*
X11073167Y-12435643D01*
X11111262Y-12435643D01*
X11130310Y-12445167D01*
X11139833Y-12464214D01*
X11139833Y-12483262D01*
X11044595Y-12502309D01*
X11216024Y-12559452D02*
X11235071Y-12568976D01*
X11273167Y-12568976D01*
X11292214Y-12559452D01*
X11301738Y-12540405D01*
X11301738Y-12530881D01*
X11292214Y-12511833D01*
X11273167Y-12502309D01*
X11244595Y-12502309D01*
X11225548Y-12492786D01*
X11216024Y-12473738D01*
X11216024Y-12464214D01*
X11225548Y-12445167D01*
X11244595Y-12435643D01*
X11273167Y-12435643D01*
X11292214Y-12445167D01*
X11368405Y-12645167D02*
X11377928Y-12635643D01*
X11396976Y-12607071D01*
X11406500Y-12588024D01*
X11416024Y-12559452D01*
X11425548Y-12511833D01*
X11425548Y-12473738D01*
X11416024Y-12426119D01*
X11406500Y-12397548D01*
X11396976Y-12378500D01*
X11377928Y-12349928D01*
X11368405Y-12340405D01*
D15*
X6584784Y-12770784D02*
X6584784Y-12714215D01*
X6528215Y-12714215D01*
X6528215Y-12770784D01*
X6584784Y-12770784D01*
D11*
X6892214Y-12632976D02*
X6911262Y-12632976D01*
X6930309Y-12642500D01*
X6939833Y-12652024D01*
X6949357Y-12671071D01*
X6958881Y-12709167D01*
X6958881Y-12756786D01*
X6949357Y-12794881D01*
X6939833Y-12813928D01*
X6930309Y-12823452D01*
X6911262Y-12832976D01*
X6892214Y-12832976D01*
X6873167Y-12823452D01*
X6863643Y-12813928D01*
X6854119Y-12794881D01*
X6844595Y-12756786D01*
X6844595Y-12709167D01*
X6854119Y-12671071D01*
X6863643Y-12652024D01*
X6873167Y-12642500D01*
X6892214Y-12632976D01*
X7044595Y-12813928D02*
X7054119Y-12823452D01*
X7044595Y-12832976D01*
X7035071Y-12823452D01*
X7044595Y-12813928D01*
X7044595Y-12832976D01*
X7168405Y-12718690D02*
X7149357Y-12709167D01*
X7139833Y-12699643D01*
X7130309Y-12680595D01*
X7130309Y-12671071D01*
X7139833Y-12652024D01*
X7149357Y-12642500D01*
X7168405Y-12632976D01*
X7206500Y-12632976D01*
X7225548Y-12642500D01*
X7235071Y-12652024D01*
X7244595Y-12671071D01*
X7244595Y-12680595D01*
X7235071Y-12699643D01*
X7225548Y-12709167D01*
X7206500Y-12718690D01*
X7168405Y-12718690D01*
X7149357Y-12728214D01*
X7139833Y-12737738D01*
X7130309Y-12756786D01*
X7130309Y-12794881D01*
X7139833Y-12813928D01*
X7149357Y-12823452D01*
X7168405Y-12832976D01*
X7206500Y-12832976D01*
X7225548Y-12823452D01*
X7235071Y-12813928D01*
X7244595Y-12794881D01*
X7244595Y-12756786D01*
X7235071Y-12737738D01*
X7225548Y-12728214D01*
X7206500Y-12718690D01*
X7368405Y-12632976D02*
X7387452Y-12632976D01*
X7406500Y-12642500D01*
X7416024Y-12652024D01*
X7425548Y-12671071D01*
X7435071Y-12709167D01*
X7435071Y-12756786D01*
X7425548Y-12794881D01*
X7416024Y-12813928D01*
X7406500Y-12823452D01*
X7387452Y-12832976D01*
X7368405Y-12832976D01*
X7349357Y-12823452D01*
X7339833Y-12813928D01*
X7330309Y-12794881D01*
X7320786Y-12756786D01*
X7320786Y-12709167D01*
X7330309Y-12671071D01*
X7339833Y-12652024D01*
X7349357Y-12642500D01*
X7368405Y-12632976D01*
X7558881Y-12632976D02*
X7577928Y-12632976D01*
X7596976Y-12642500D01*
X7606500Y-12652024D01*
X7616024Y-12671071D01*
X7625548Y-12709167D01*
X7625548Y-12756786D01*
X7616024Y-12794881D01*
X7606500Y-12813928D01*
X7596976Y-12823452D01*
X7577928Y-12832976D01*
X7558881Y-12832976D01*
X7539833Y-12823452D01*
X7530309Y-12813928D01*
X7520786Y-12794881D01*
X7511262Y-12756786D01*
X7511262Y-12709167D01*
X7520786Y-12671071D01*
X7530309Y-12652024D01*
X7539833Y-12642500D01*
X7558881Y-12632976D01*
X7711262Y-12832976D02*
X7711262Y-12699643D01*
X7711262Y-12718690D02*
X7720786Y-12709167D01*
X7739833Y-12699643D01*
X7768405Y-12699643D01*
X7787452Y-12709167D01*
X7796976Y-12728214D01*
X7796976Y-12832976D01*
X7796976Y-12728214D02*
X7806500Y-12709167D01*
X7825548Y-12699643D01*
X7854119Y-12699643D01*
X7873167Y-12709167D01*
X7882690Y-12728214D01*
X7882690Y-12832976D01*
X7977928Y-12832976D02*
X7977928Y-12699643D01*
X7977928Y-12718690D02*
X7987452Y-12709167D01*
X8006500Y-12699643D01*
X8035071Y-12699643D01*
X8054119Y-12709167D01*
X8063643Y-12728214D01*
X8063643Y-12832976D01*
X8063643Y-12728214D02*
X8073167Y-12709167D01*
X8092214Y-12699643D01*
X8120786Y-12699643D01*
X8139833Y-12709167D01*
X8149357Y-12728214D01*
X8149357Y-12832976D01*
X8539833Y-12623452D02*
X8368405Y-12880595D01*
X8796976Y-12632976D02*
X8816024Y-12632976D01*
X8835071Y-12642500D01*
X8844595Y-12652024D01*
X8854119Y-12671071D01*
X8863643Y-12709167D01*
X8863643Y-12756786D01*
X8854119Y-12794881D01*
X8844595Y-12813928D01*
X8835071Y-12823452D01*
X8816024Y-12832976D01*
X8796976Y-12832976D01*
X8777929Y-12823452D01*
X8768405Y-12813928D01*
X8758881Y-12794881D01*
X8749357Y-12756786D01*
X8749357Y-12709167D01*
X8758881Y-12671071D01*
X8768405Y-12652024D01*
X8777929Y-12642500D01*
X8796976Y-12632976D01*
X8949357Y-12813928D02*
X8958881Y-12823452D01*
X8949357Y-12832976D01*
X8939833Y-12823452D01*
X8949357Y-12813928D01*
X8949357Y-12832976D01*
X9082690Y-12632976D02*
X9101738Y-12632976D01*
X9120786Y-12642500D01*
X9130310Y-12652024D01*
X9139833Y-12671071D01*
X9149357Y-12709167D01*
X9149357Y-12756786D01*
X9139833Y-12794881D01*
X9130310Y-12813928D01*
X9120786Y-12823452D01*
X9101738Y-12832976D01*
X9082690Y-12832976D01*
X9063643Y-12823452D01*
X9054119Y-12813928D01*
X9044595Y-12794881D01*
X9035071Y-12756786D01*
X9035071Y-12709167D01*
X9044595Y-12671071D01*
X9054119Y-12652024D01*
X9063643Y-12642500D01*
X9082690Y-12632976D01*
X9216024Y-12632976D02*
X9339833Y-12632976D01*
X9273167Y-12709167D01*
X9301738Y-12709167D01*
X9320786Y-12718690D01*
X9330310Y-12728214D01*
X9339833Y-12747262D01*
X9339833Y-12794881D01*
X9330310Y-12813928D01*
X9320786Y-12823452D01*
X9301738Y-12832976D01*
X9244595Y-12832976D01*
X9225548Y-12823452D01*
X9216024Y-12813928D01*
X9530310Y-12832976D02*
X9416024Y-12832976D01*
X9473167Y-12832976D02*
X9473167Y-12632976D01*
X9454119Y-12661548D01*
X9435071Y-12680595D01*
X9416024Y-12690119D01*
X9711262Y-12632976D02*
X9616024Y-12632976D01*
X9606500Y-12728214D01*
X9616024Y-12718690D01*
X9635071Y-12709167D01*
X9682690Y-12709167D01*
X9701738Y-12718690D01*
X9711262Y-12728214D01*
X9720786Y-12747262D01*
X9720786Y-12794881D01*
X9711262Y-12813928D01*
X9701738Y-12823452D01*
X9682690Y-12832976D01*
X9635071Y-12832976D01*
X9616024Y-12823452D01*
X9606500Y-12813928D01*
X9796976Y-12632976D02*
X9796976Y-12671071D01*
X9873167Y-12632976D02*
X9873167Y-12671071D01*
X10168405Y-12909167D02*
X10158881Y-12899643D01*
X10139833Y-12871071D01*
X10130310Y-12852024D01*
X10120786Y-12823452D01*
X10111262Y-12775833D01*
X10111262Y-12737738D01*
X10120786Y-12690119D01*
X10130310Y-12661548D01*
X10139833Y-12642500D01*
X10158881Y-12613928D01*
X10168405Y-12604405D01*
X10235071Y-12652024D02*
X10244595Y-12642500D01*
X10263643Y-12632976D01*
X10311262Y-12632976D01*
X10330310Y-12642500D01*
X10339833Y-12652024D01*
X10349357Y-12671071D01*
X10349357Y-12690119D01*
X10339833Y-12718690D01*
X10225548Y-12832976D01*
X10349357Y-12832976D01*
X10416024Y-12632976D02*
X10549357Y-12632976D01*
X10463643Y-12832976D01*
X10777929Y-12832976D02*
X10777929Y-12632976D01*
X10863643Y-12832976D02*
X10863643Y-12728214D01*
X10854119Y-12709167D01*
X10835071Y-12699643D01*
X10806500Y-12699643D01*
X10787452Y-12709167D01*
X10777929Y-12718690D01*
X10987452Y-12832976D02*
X10968405Y-12823452D01*
X10958881Y-12813928D01*
X10949357Y-12794881D01*
X10949357Y-12737738D01*
X10958881Y-12718690D01*
X10968405Y-12709167D01*
X10987452Y-12699643D01*
X11016024Y-12699643D01*
X11035071Y-12709167D01*
X11044595Y-12718690D01*
X11054119Y-12737738D01*
X11054119Y-12794881D01*
X11044595Y-12813928D01*
X11035071Y-12823452D01*
X11016024Y-12832976D01*
X10987452Y-12832976D01*
X11168405Y-12832976D02*
X11149357Y-12823452D01*
X11139833Y-12804405D01*
X11139833Y-12632976D01*
X11320786Y-12823452D02*
X11301738Y-12832976D01*
X11263643Y-12832976D01*
X11244595Y-12823452D01*
X11235071Y-12804405D01*
X11235071Y-12728214D01*
X11244595Y-12709167D01*
X11263643Y-12699643D01*
X11301738Y-12699643D01*
X11320786Y-12709167D01*
X11330309Y-12728214D01*
X11330309Y-12747262D01*
X11235071Y-12766309D01*
X11406500Y-12823452D02*
X11425548Y-12832976D01*
X11463643Y-12832976D01*
X11482690Y-12823452D01*
X11492214Y-12804405D01*
X11492214Y-12794881D01*
X11482690Y-12775833D01*
X11463643Y-12766309D01*
X11435071Y-12766309D01*
X11416024Y-12756786D01*
X11406500Y-12737738D01*
X11406500Y-12728214D01*
X11416024Y-12709167D01*
X11435071Y-12699643D01*
X11463643Y-12699643D01*
X11482690Y-12709167D01*
X11558881Y-12909167D02*
X11568405Y-12899643D01*
X11587452Y-12871071D01*
X11596976Y-12852024D01*
X11606500Y-12823452D01*
X11616024Y-12775833D01*
X11616024Y-12737738D01*
X11606500Y-12690119D01*
X11596976Y-12661548D01*
X11587452Y-12642500D01*
X11568405Y-12613928D01*
X11558881Y-12604405D01*
D16*
X6546500Y-13056500D02*
X6596500Y-13006500D01*
X6546500Y-12956500D01*
X6496500Y-13006500D01*
X6546500Y-13056500D01*
D11*
X6958881Y-13096976D02*
X6844595Y-13096976D01*
X6901738Y-13096976D02*
X6901738Y-12896976D01*
X6882690Y-12925548D01*
X6863643Y-12944595D01*
X6844595Y-12954119D01*
X7044595Y-13077928D02*
X7054119Y-13087452D01*
X7044595Y-13096976D01*
X7035071Y-13087452D01*
X7044595Y-13077928D01*
X7044595Y-13096976D01*
X7177928Y-12896976D02*
X7196976Y-12896976D01*
X7216024Y-12906500D01*
X7225548Y-12916024D01*
X7235071Y-12935071D01*
X7244595Y-12973167D01*
X7244595Y-13020786D01*
X7235071Y-13058881D01*
X7225548Y-13077928D01*
X7216024Y-13087452D01*
X7196976Y-13096976D01*
X7177928Y-13096976D01*
X7158881Y-13087452D01*
X7149357Y-13077928D01*
X7139833Y-13058881D01*
X7130309Y-13020786D01*
X7130309Y-12973167D01*
X7139833Y-12935071D01*
X7149357Y-12916024D01*
X7158881Y-12906500D01*
X7177928Y-12896976D01*
X7368405Y-12896976D02*
X7387452Y-12896976D01*
X7406500Y-12906500D01*
X7416024Y-12916024D01*
X7425548Y-12935071D01*
X7435071Y-12973167D01*
X7435071Y-13020786D01*
X7425548Y-13058881D01*
X7416024Y-13077928D01*
X7406500Y-13087452D01*
X7387452Y-13096976D01*
X7368405Y-13096976D01*
X7349357Y-13087452D01*
X7339833Y-13077928D01*
X7330309Y-13058881D01*
X7320786Y-13020786D01*
X7320786Y-12973167D01*
X7330309Y-12935071D01*
X7339833Y-12916024D01*
X7349357Y-12906500D01*
X7368405Y-12896976D01*
X7558881Y-12896976D02*
X7577928Y-12896976D01*
X7596976Y-12906500D01*
X7606500Y-12916024D01*
X7616024Y-12935071D01*
X7625548Y-12973167D01*
X7625548Y-13020786D01*
X7616024Y-13058881D01*
X7606500Y-13077928D01*
X7596976Y-13087452D01*
X7577928Y-13096976D01*
X7558881Y-13096976D01*
X7539833Y-13087452D01*
X7530309Y-13077928D01*
X7520786Y-13058881D01*
X7511262Y-13020786D01*
X7511262Y-12973167D01*
X7520786Y-12935071D01*
X7530309Y-12916024D01*
X7539833Y-12906500D01*
X7558881Y-12896976D01*
X7711262Y-13096976D02*
X7711262Y-12963643D01*
X7711262Y-12982690D02*
X7720786Y-12973167D01*
X7739833Y-12963643D01*
X7768405Y-12963643D01*
X7787452Y-12973167D01*
X7796976Y-12992214D01*
X7796976Y-13096976D01*
X7796976Y-12992214D02*
X7806500Y-12973167D01*
X7825548Y-12963643D01*
X7854119Y-12963643D01*
X7873167Y-12973167D01*
X7882690Y-12992214D01*
X7882690Y-13096976D01*
X7977928Y-13096976D02*
X7977928Y-12963643D01*
X7977928Y-12982690D02*
X7987452Y-12973167D01*
X8006500Y-12963643D01*
X8035071Y-12963643D01*
X8054119Y-12973167D01*
X8063643Y-12992214D01*
X8063643Y-13096976D01*
X8063643Y-12992214D02*
X8073167Y-12973167D01*
X8092214Y-12963643D01*
X8120786Y-12963643D01*
X8139833Y-12973167D01*
X8149357Y-12992214D01*
X8149357Y-13096976D01*
X8539833Y-12887452D02*
X8368405Y-13144595D01*
X8796976Y-12896976D02*
X8816024Y-12896976D01*
X8835071Y-12906500D01*
X8844595Y-12916024D01*
X8854119Y-12935071D01*
X8863643Y-12973167D01*
X8863643Y-13020786D01*
X8854119Y-13058881D01*
X8844595Y-13077928D01*
X8835071Y-13087452D01*
X8816024Y-13096976D01*
X8796976Y-13096976D01*
X8777929Y-13087452D01*
X8768405Y-13077928D01*
X8758881Y-13058881D01*
X8749357Y-13020786D01*
X8749357Y-12973167D01*
X8758881Y-12935071D01*
X8768405Y-12916024D01*
X8777929Y-12906500D01*
X8796976Y-12896976D01*
X8949357Y-13077928D02*
X8958881Y-13087452D01*
X8949357Y-13096976D01*
X8939833Y-13087452D01*
X8949357Y-13077928D01*
X8949357Y-13096976D01*
X9082690Y-12896976D02*
X9101738Y-12896976D01*
X9120786Y-12906500D01*
X9130310Y-12916024D01*
X9139833Y-12935071D01*
X9149357Y-12973167D01*
X9149357Y-13020786D01*
X9139833Y-13058881D01*
X9130310Y-13077928D01*
X9120786Y-13087452D01*
X9101738Y-13096976D01*
X9082690Y-13096976D01*
X9063643Y-13087452D01*
X9054119Y-13077928D01*
X9044595Y-13058881D01*
X9035071Y-13020786D01*
X9035071Y-12973167D01*
X9044595Y-12935071D01*
X9054119Y-12916024D01*
X9063643Y-12906500D01*
X9082690Y-12896976D01*
X9216024Y-12896976D02*
X9339833Y-12896976D01*
X9273167Y-12973167D01*
X9301738Y-12973167D01*
X9320786Y-12982690D01*
X9330310Y-12992214D01*
X9339833Y-13011262D01*
X9339833Y-13058881D01*
X9330310Y-13077928D01*
X9320786Y-13087452D01*
X9301738Y-13096976D01*
X9244595Y-13096976D01*
X9225548Y-13087452D01*
X9216024Y-13077928D01*
X9435071Y-13096976D02*
X9473167Y-13096976D01*
X9492214Y-13087452D01*
X9501738Y-13077928D01*
X9520786Y-13049357D01*
X9530310Y-13011262D01*
X9530310Y-12935071D01*
X9520786Y-12916024D01*
X9511262Y-12906500D01*
X9492214Y-12896976D01*
X9454119Y-12896976D01*
X9435071Y-12906500D01*
X9425548Y-12916024D01*
X9416024Y-12935071D01*
X9416024Y-12982690D01*
X9425548Y-13001738D01*
X9435071Y-13011262D01*
X9454119Y-13020786D01*
X9492214Y-13020786D01*
X9511262Y-13011262D01*
X9520786Y-13001738D01*
X9530310Y-12982690D01*
X9701738Y-12963643D02*
X9701738Y-13096976D01*
X9654119Y-12887452D02*
X9606500Y-13030309D01*
X9730310Y-13030309D01*
X9796976Y-12896976D02*
X9796976Y-12935071D01*
X9873167Y-12896976D02*
X9873167Y-12935071D01*
X10168405Y-13173167D02*
X10158881Y-13163643D01*
X10139833Y-13135071D01*
X10130310Y-13116024D01*
X10120786Y-13087452D01*
X10111262Y-13039833D01*
X10111262Y-13001738D01*
X10120786Y-12954119D01*
X10130310Y-12925548D01*
X10139833Y-12906500D01*
X10158881Y-12877928D01*
X10168405Y-12868405D01*
X10349357Y-13096976D02*
X10235071Y-13096976D01*
X10292214Y-13096976D02*
X10292214Y-12896976D01*
X10273167Y-12925548D01*
X10254119Y-12944595D01*
X10235071Y-12954119D01*
X10473167Y-12896976D02*
X10492214Y-12896976D01*
X10511262Y-12906500D01*
X10520786Y-12916024D01*
X10530310Y-12935071D01*
X10539833Y-12973167D01*
X10539833Y-13020786D01*
X10530310Y-13058881D01*
X10520786Y-13077928D01*
X10511262Y-13087452D01*
X10492214Y-13096976D01*
X10473167Y-13096976D01*
X10454119Y-13087452D01*
X10444595Y-13077928D01*
X10435071Y-13058881D01*
X10425548Y-13020786D01*
X10425548Y-12973167D01*
X10435071Y-12935071D01*
X10444595Y-12916024D01*
X10454119Y-12906500D01*
X10473167Y-12896976D01*
X10616024Y-12916024D02*
X10625548Y-12906500D01*
X10644595Y-12896976D01*
X10692214Y-12896976D01*
X10711262Y-12906500D01*
X10720786Y-12916024D01*
X10730310Y-12935071D01*
X10730310Y-12954119D01*
X10720786Y-12982690D01*
X10606500Y-13096976D01*
X10730310Y-13096976D01*
X10968405Y-13096976D02*
X10968405Y-12896976D01*
X11054119Y-13096976D02*
X11054119Y-12992214D01*
X11044595Y-12973167D01*
X11025548Y-12963643D01*
X10996976Y-12963643D01*
X10977929Y-12973167D01*
X10968405Y-12982690D01*
X11177929Y-13096976D02*
X11158881Y-13087452D01*
X11149357Y-13077928D01*
X11139833Y-13058881D01*
X11139833Y-13001738D01*
X11149357Y-12982690D01*
X11158881Y-12973167D01*
X11177929Y-12963643D01*
X11206500Y-12963643D01*
X11225548Y-12973167D01*
X11235071Y-12982690D01*
X11244595Y-13001738D01*
X11244595Y-13058881D01*
X11235071Y-13077928D01*
X11225548Y-13087452D01*
X11206500Y-13096976D01*
X11177929Y-13096976D01*
X11358881Y-13096976D02*
X11339833Y-13087452D01*
X11330309Y-13068405D01*
X11330309Y-12896976D01*
X11511262Y-13087452D02*
X11492214Y-13096976D01*
X11454119Y-13096976D01*
X11435071Y-13087452D01*
X11425548Y-13068405D01*
X11425548Y-12992214D01*
X11435071Y-12973167D01*
X11454119Y-12963643D01*
X11492214Y-12963643D01*
X11511262Y-12973167D01*
X11520786Y-12992214D01*
X11520786Y-13011262D01*
X11425548Y-13030309D01*
X11596976Y-13087452D02*
X11616024Y-13096976D01*
X11654119Y-13096976D01*
X11673167Y-13087452D01*
X11682690Y-13068405D01*
X11682690Y-13058881D01*
X11673167Y-13039833D01*
X11654119Y-13030309D01*
X11625548Y-13030309D01*
X11606500Y-13020786D01*
X11596976Y-13001738D01*
X11596976Y-12992214D01*
X11606500Y-12973167D01*
X11625548Y-12963643D01*
X11654119Y-12963643D01*
X11673167Y-12973167D01*
X11749357Y-13173167D02*
X11758881Y-13163643D01*
X11777928Y-13135071D01*
X11787452Y-13116024D01*
X11796976Y-13087452D01*
X11806500Y-13039833D01*
X11806500Y-13001738D01*
X11796976Y-12954119D01*
X11787452Y-12925548D01*
X11777928Y-12906500D01*
X11758881Y-12877928D01*
X11749357Y-12868405D01*
D17*
X6486500Y-13215500D02*
X6596500Y-13325500D01*
X6596500Y-13215500D02*
X6486500Y-13325500D01*
X6596500Y-13270500D02*
G75*
G03*
X6596500Y-13270500I-55000J0D01*
G01*
D11*
X6958881Y-13360976D02*
X6844595Y-13360976D01*
X6901738Y-13360976D02*
X6901738Y-13160976D01*
X6882690Y-13189548D01*
X6863643Y-13208595D01*
X6844595Y-13218119D01*
X7044595Y-13341928D02*
X7054119Y-13351452D01*
X7044595Y-13360976D01*
X7035071Y-13351452D01*
X7044595Y-13341928D01*
X7044595Y-13360976D01*
X7244595Y-13360976D02*
X7130309Y-13360976D01*
X7187452Y-13360976D02*
X7187452Y-13160976D01*
X7168405Y-13189548D01*
X7149357Y-13208595D01*
X7130309Y-13218119D01*
X7368405Y-13160976D02*
X7387452Y-13160976D01*
X7406500Y-13170500D01*
X7416024Y-13180024D01*
X7425548Y-13199071D01*
X7435071Y-13237167D01*
X7435071Y-13284786D01*
X7425548Y-13322881D01*
X7416024Y-13341928D01*
X7406500Y-13351452D01*
X7387452Y-13360976D01*
X7368405Y-13360976D01*
X7349357Y-13351452D01*
X7339833Y-13341928D01*
X7330309Y-13322881D01*
X7320786Y-13284786D01*
X7320786Y-13237167D01*
X7330309Y-13199071D01*
X7339833Y-13180024D01*
X7349357Y-13170500D01*
X7368405Y-13160976D01*
X7558881Y-13160976D02*
X7577928Y-13160976D01*
X7596976Y-13170500D01*
X7606500Y-13180024D01*
X7616024Y-13199071D01*
X7625548Y-13237167D01*
X7625548Y-13284786D01*
X7616024Y-13322881D01*
X7606500Y-13341928D01*
X7596976Y-13351452D01*
X7577928Y-13360976D01*
X7558881Y-13360976D01*
X7539833Y-13351452D01*
X7530309Y-13341928D01*
X7520786Y-13322881D01*
X7511262Y-13284786D01*
X7511262Y-13237167D01*
X7520786Y-13199071D01*
X7530309Y-13180024D01*
X7539833Y-13170500D01*
X7558881Y-13160976D01*
X7711262Y-13360976D02*
X7711262Y-13227643D01*
X7711262Y-13246690D02*
X7720786Y-13237167D01*
X7739833Y-13227643D01*
X7768405Y-13227643D01*
X7787452Y-13237167D01*
X7796976Y-13256214D01*
X7796976Y-13360976D01*
X7796976Y-13256214D02*
X7806500Y-13237167D01*
X7825548Y-13227643D01*
X7854119Y-13227643D01*
X7873167Y-13237167D01*
X7882690Y-13256214D01*
X7882690Y-13360976D01*
X7977928Y-13360976D02*
X7977928Y-13227643D01*
X7977928Y-13246690D02*
X7987452Y-13237167D01*
X8006500Y-13227643D01*
X8035071Y-13227643D01*
X8054119Y-13237167D01*
X8063643Y-13256214D01*
X8063643Y-13360976D01*
X8063643Y-13256214D02*
X8073167Y-13237167D01*
X8092214Y-13227643D01*
X8120786Y-13227643D01*
X8139833Y-13237167D01*
X8149357Y-13256214D01*
X8149357Y-13360976D01*
X8539833Y-13151452D02*
X8368405Y-13408595D01*
X8796976Y-13160976D02*
X8816024Y-13160976D01*
X8835071Y-13170500D01*
X8844595Y-13180024D01*
X8854119Y-13199071D01*
X8863643Y-13237167D01*
X8863643Y-13284786D01*
X8854119Y-13322881D01*
X8844595Y-13341928D01*
X8835071Y-13351452D01*
X8816024Y-13360976D01*
X8796976Y-13360976D01*
X8777929Y-13351452D01*
X8768405Y-13341928D01*
X8758881Y-13322881D01*
X8749357Y-13284786D01*
X8749357Y-13237167D01*
X8758881Y-13199071D01*
X8768405Y-13180024D01*
X8777929Y-13170500D01*
X8796976Y-13160976D01*
X8949357Y-13341928D02*
X8958881Y-13351452D01*
X8949357Y-13360976D01*
X8939833Y-13351452D01*
X8949357Y-13341928D01*
X8949357Y-13360976D01*
X9082690Y-13160976D02*
X9101738Y-13160976D01*
X9120786Y-13170500D01*
X9130310Y-13180024D01*
X9139833Y-13199071D01*
X9149357Y-13237167D01*
X9149357Y-13284786D01*
X9139833Y-13322881D01*
X9130310Y-13341928D01*
X9120786Y-13351452D01*
X9101738Y-13360976D01*
X9082690Y-13360976D01*
X9063643Y-13351452D01*
X9054119Y-13341928D01*
X9044595Y-13322881D01*
X9035071Y-13284786D01*
X9035071Y-13237167D01*
X9044595Y-13199071D01*
X9054119Y-13180024D01*
X9063643Y-13170500D01*
X9082690Y-13160976D01*
X9320786Y-13227643D02*
X9320786Y-13360976D01*
X9273167Y-13151452D02*
X9225548Y-13294309D01*
X9349357Y-13294309D01*
X9406500Y-13160976D02*
X9530310Y-13160976D01*
X9463643Y-13237167D01*
X9492214Y-13237167D01*
X9511262Y-13246690D01*
X9520786Y-13256214D01*
X9530310Y-13275262D01*
X9530310Y-13322881D01*
X9520786Y-13341928D01*
X9511262Y-13351452D01*
X9492214Y-13360976D01*
X9435071Y-13360976D01*
X9416024Y-13351452D01*
X9406500Y-13341928D01*
X9596976Y-13160976D02*
X9720786Y-13160976D01*
X9654119Y-13237167D01*
X9682690Y-13237167D01*
X9701738Y-13246690D01*
X9711262Y-13256214D01*
X9720786Y-13275262D01*
X9720786Y-13322881D01*
X9711262Y-13341928D01*
X9701738Y-13351452D01*
X9682690Y-13360976D01*
X9625548Y-13360976D01*
X9606500Y-13351452D01*
X9596976Y-13341928D01*
X9796976Y-13160976D02*
X9796976Y-13199071D01*
X9873167Y-13160976D02*
X9873167Y-13199071D01*
X10168405Y-13437167D02*
X10158881Y-13427643D01*
X10139833Y-13399071D01*
X10130310Y-13380024D01*
X10120786Y-13351452D01*
X10111262Y-13303833D01*
X10111262Y-13265738D01*
X10120786Y-13218119D01*
X10130310Y-13189548D01*
X10139833Y-13170500D01*
X10158881Y-13141928D01*
X10168405Y-13132405D01*
X10235071Y-13180024D02*
X10244595Y-13170500D01*
X10263643Y-13160976D01*
X10311262Y-13160976D01*
X10330310Y-13170500D01*
X10339833Y-13180024D01*
X10349357Y-13199071D01*
X10349357Y-13218119D01*
X10339833Y-13246690D01*
X10225548Y-13360976D01*
X10349357Y-13360976D01*
X10587452Y-13360976D02*
X10587452Y-13160976D01*
X10673167Y-13360976D02*
X10673167Y-13256214D01*
X10663643Y-13237167D01*
X10644595Y-13227643D01*
X10616024Y-13227643D01*
X10596976Y-13237167D01*
X10587452Y-13246690D01*
X10796976Y-13360976D02*
X10777929Y-13351452D01*
X10768405Y-13341928D01*
X10758881Y-13322881D01*
X10758881Y-13265738D01*
X10768405Y-13246690D01*
X10777929Y-13237167D01*
X10796976Y-13227643D01*
X10825548Y-13227643D01*
X10844595Y-13237167D01*
X10854119Y-13246690D01*
X10863643Y-13265738D01*
X10863643Y-13322881D01*
X10854119Y-13341928D01*
X10844595Y-13351452D01*
X10825548Y-13360976D01*
X10796976Y-13360976D01*
X10977929Y-13360976D02*
X10958881Y-13351452D01*
X10949357Y-13332405D01*
X10949357Y-13160976D01*
X11130310Y-13351452D02*
X11111262Y-13360976D01*
X11073167Y-13360976D01*
X11054119Y-13351452D01*
X11044595Y-13332405D01*
X11044595Y-13256214D01*
X11054119Y-13237167D01*
X11073167Y-13227643D01*
X11111262Y-13227643D01*
X11130310Y-13237167D01*
X11139833Y-13256214D01*
X11139833Y-13275262D01*
X11044595Y-13294309D01*
X11216024Y-13351452D02*
X11235071Y-13360976D01*
X11273167Y-13360976D01*
X11292214Y-13351452D01*
X11301738Y-13332405D01*
X11301738Y-13322881D01*
X11292214Y-13303833D01*
X11273167Y-13294309D01*
X11244595Y-13294309D01*
X11225548Y-13284786D01*
X11216024Y-13265738D01*
X11216024Y-13256214D01*
X11225548Y-13237167D01*
X11244595Y-13227643D01*
X11273167Y-13227643D01*
X11292214Y-13237167D01*
X11368405Y-13437167D02*
X11377928Y-13427643D01*
X11396976Y-13399071D01*
X11406500Y-13380024D01*
X11416024Y-13351452D01*
X11425548Y-13303833D01*
X11425548Y-13265738D01*
X11416024Y-13218119D01*
X11406500Y-13189548D01*
X11396976Y-13170500D01*
X11377928Y-13141928D01*
X11368405Y-13132405D01*
D18*
X6477500Y-13475000D02*
X6596500Y-13594000D01*
X6596500Y-13475000D02*
X6477500Y-13594000D01*
X6537000Y-13475000D02*
X6537000Y-13594000D01*
X6477500Y-13534500D02*
X6596500Y-13534500D01*
D11*
X6958881Y-13624976D02*
X6844595Y-13624976D01*
X6901738Y-13624976D02*
X6901738Y-13424976D01*
X6882690Y-13453548D01*
X6863643Y-13472595D01*
X6844595Y-13482119D01*
X7044595Y-13605928D02*
X7054119Y-13615452D01*
X7044595Y-13624976D01*
X7035071Y-13615452D01*
X7044595Y-13605928D01*
X7044595Y-13624976D01*
X7244595Y-13624976D02*
X7130309Y-13624976D01*
X7187452Y-13624976D02*
X7187452Y-13424976D01*
X7168405Y-13453548D01*
X7149357Y-13472595D01*
X7130309Y-13482119D01*
X7339833Y-13624976D02*
X7377928Y-13624976D01*
X7396976Y-13615452D01*
X7406500Y-13605928D01*
X7425548Y-13577357D01*
X7435071Y-13539262D01*
X7435071Y-13463071D01*
X7425548Y-13444024D01*
X7416024Y-13434500D01*
X7396976Y-13424976D01*
X7358881Y-13424976D01*
X7339833Y-13434500D01*
X7330309Y-13444024D01*
X7320786Y-13463071D01*
X7320786Y-13510690D01*
X7330309Y-13529738D01*
X7339833Y-13539262D01*
X7358881Y-13548786D01*
X7396976Y-13548786D01*
X7416024Y-13539262D01*
X7425548Y-13529738D01*
X7435071Y-13510690D01*
X7558881Y-13424976D02*
X7577928Y-13424976D01*
X7596976Y-13434500D01*
X7606500Y-13444024D01*
X7616024Y-13463071D01*
X7625548Y-13501167D01*
X7625548Y-13548786D01*
X7616024Y-13586881D01*
X7606500Y-13605928D01*
X7596976Y-13615452D01*
X7577928Y-13624976D01*
X7558881Y-13624976D01*
X7539833Y-13615452D01*
X7530309Y-13605928D01*
X7520786Y-13586881D01*
X7511262Y-13548786D01*
X7511262Y-13501167D01*
X7520786Y-13463071D01*
X7530309Y-13444024D01*
X7539833Y-13434500D01*
X7558881Y-13424976D01*
X7711262Y-13624976D02*
X7711262Y-13491643D01*
X7711262Y-13510690D02*
X7720786Y-13501167D01*
X7739833Y-13491643D01*
X7768405Y-13491643D01*
X7787452Y-13501167D01*
X7796976Y-13520214D01*
X7796976Y-13624976D01*
X7796976Y-13520214D02*
X7806500Y-13501167D01*
X7825548Y-13491643D01*
X7854119Y-13491643D01*
X7873167Y-13501167D01*
X7882690Y-13520214D01*
X7882690Y-13624976D01*
X7977928Y-13624976D02*
X7977928Y-13491643D01*
X7977928Y-13510690D02*
X7987452Y-13501167D01*
X8006500Y-13491643D01*
X8035071Y-13491643D01*
X8054119Y-13501167D01*
X8063643Y-13520214D01*
X8063643Y-13624976D01*
X8063643Y-13520214D02*
X8073167Y-13501167D01*
X8092214Y-13491643D01*
X8120786Y-13491643D01*
X8139833Y-13501167D01*
X8149357Y-13520214D01*
X8149357Y-13624976D01*
X8539833Y-13415452D02*
X8368405Y-13672595D01*
X8796976Y-13424976D02*
X8816024Y-13424976D01*
X8835071Y-13434500D01*
X8844595Y-13444024D01*
X8854119Y-13463071D01*
X8863643Y-13501167D01*
X8863643Y-13548786D01*
X8854119Y-13586881D01*
X8844595Y-13605928D01*
X8835071Y-13615452D01*
X8816024Y-13624976D01*
X8796976Y-13624976D01*
X8777929Y-13615452D01*
X8768405Y-13605928D01*
X8758881Y-13586881D01*
X8749357Y-13548786D01*
X8749357Y-13501167D01*
X8758881Y-13463071D01*
X8768405Y-13444024D01*
X8777929Y-13434500D01*
X8796976Y-13424976D01*
X8949357Y-13605928D02*
X8958881Y-13615452D01*
X8949357Y-13624976D01*
X8939833Y-13615452D01*
X8949357Y-13605928D01*
X8949357Y-13624976D01*
X9082690Y-13424976D02*
X9101738Y-13424976D01*
X9120786Y-13434500D01*
X9130310Y-13444024D01*
X9139833Y-13463071D01*
X9149357Y-13501167D01*
X9149357Y-13548786D01*
X9139833Y-13586881D01*
X9130310Y-13605928D01*
X9120786Y-13615452D01*
X9101738Y-13624976D01*
X9082690Y-13624976D01*
X9063643Y-13615452D01*
X9054119Y-13605928D01*
X9044595Y-13586881D01*
X9035071Y-13548786D01*
X9035071Y-13501167D01*
X9044595Y-13463071D01*
X9054119Y-13444024D01*
X9063643Y-13434500D01*
X9082690Y-13424976D01*
X9320786Y-13491643D02*
X9320786Y-13624976D01*
X9273167Y-13415452D02*
X9225548Y-13558309D01*
X9349357Y-13558309D01*
X9511262Y-13424976D02*
X9473167Y-13424976D01*
X9454119Y-13434500D01*
X9444595Y-13444024D01*
X9425548Y-13472595D01*
X9416024Y-13510690D01*
X9416024Y-13586881D01*
X9425548Y-13605928D01*
X9435071Y-13615452D01*
X9454119Y-13624976D01*
X9492214Y-13624976D01*
X9511262Y-13615452D01*
X9520786Y-13605928D01*
X9530310Y-13586881D01*
X9530310Y-13539262D01*
X9520786Y-13520214D01*
X9511262Y-13510690D01*
X9492214Y-13501167D01*
X9454119Y-13501167D01*
X9435071Y-13510690D01*
X9425548Y-13520214D01*
X9416024Y-13539262D01*
X9625548Y-13624976D02*
X9663643Y-13624976D01*
X9682690Y-13615452D01*
X9692214Y-13605928D01*
X9711262Y-13577357D01*
X9720786Y-13539262D01*
X9720786Y-13463071D01*
X9711262Y-13444024D01*
X9701738Y-13434500D01*
X9682690Y-13424976D01*
X9644595Y-13424976D01*
X9625548Y-13434500D01*
X9616024Y-13444024D01*
X9606500Y-13463071D01*
X9606500Y-13510690D01*
X9616024Y-13529738D01*
X9625548Y-13539262D01*
X9644595Y-13548786D01*
X9682690Y-13548786D01*
X9701738Y-13539262D01*
X9711262Y-13529738D01*
X9720786Y-13510690D01*
X9796976Y-13424976D02*
X9796976Y-13463071D01*
X9873167Y-13424976D02*
X9873167Y-13463071D01*
X10168405Y-13701167D02*
X10158881Y-13691643D01*
X10139833Y-13663071D01*
X10130310Y-13644024D01*
X10120786Y-13615452D01*
X10111262Y-13567833D01*
X10111262Y-13529738D01*
X10120786Y-13482119D01*
X10130310Y-13453548D01*
X10139833Y-13434500D01*
X10158881Y-13405928D01*
X10168405Y-13396405D01*
X10235071Y-13444024D02*
X10244595Y-13434500D01*
X10263643Y-13424976D01*
X10311262Y-13424976D01*
X10330310Y-13434500D01*
X10339833Y-13444024D01*
X10349357Y-13463071D01*
X10349357Y-13482119D01*
X10339833Y-13510690D01*
X10225548Y-13624976D01*
X10349357Y-13624976D01*
X10416024Y-13424976D02*
X10539833Y-13424976D01*
X10473167Y-13501167D01*
X10501738Y-13501167D01*
X10520786Y-13510690D01*
X10530310Y-13520214D01*
X10539833Y-13539262D01*
X10539833Y-13586881D01*
X10530310Y-13605928D01*
X10520786Y-13615452D01*
X10501738Y-13624976D01*
X10444595Y-13624976D01*
X10425548Y-13615452D01*
X10416024Y-13605928D01*
X10777929Y-13624976D02*
X10777929Y-13424976D01*
X10863643Y-13624976D02*
X10863643Y-13520214D01*
X10854119Y-13501167D01*
X10835071Y-13491643D01*
X10806500Y-13491643D01*
X10787452Y-13501167D01*
X10777929Y-13510690D01*
X10987452Y-13624976D02*
X10968405Y-13615452D01*
X10958881Y-13605928D01*
X10949357Y-13586881D01*
X10949357Y-13529738D01*
X10958881Y-13510690D01*
X10968405Y-13501167D01*
X10987452Y-13491643D01*
X11016024Y-13491643D01*
X11035071Y-13501167D01*
X11044595Y-13510690D01*
X11054119Y-13529738D01*
X11054119Y-13586881D01*
X11044595Y-13605928D01*
X11035071Y-13615452D01*
X11016024Y-13624976D01*
X10987452Y-13624976D01*
X11168405Y-13624976D02*
X11149357Y-13615452D01*
X11139833Y-13596405D01*
X11139833Y-13424976D01*
X11320786Y-13615452D02*
X11301738Y-13624976D01*
X11263643Y-13624976D01*
X11244595Y-13615452D01*
X11235071Y-13596405D01*
X11235071Y-13520214D01*
X11244595Y-13501167D01*
X11263643Y-13491643D01*
X11301738Y-13491643D01*
X11320786Y-13501167D01*
X11330309Y-13520214D01*
X11330309Y-13539262D01*
X11235071Y-13558309D01*
X11406500Y-13615452D02*
X11425548Y-13624976D01*
X11463643Y-13624976D01*
X11482690Y-13615452D01*
X11492214Y-13596405D01*
X11492214Y-13586881D01*
X11482690Y-13567833D01*
X11463643Y-13558309D01*
X11435071Y-13558309D01*
X11416024Y-13548786D01*
X11406500Y-13529738D01*
X11406500Y-13520214D01*
X11416024Y-13501167D01*
X11435071Y-13491643D01*
X11463643Y-13491643D01*
X11482690Y-13501167D01*
X11558881Y-13701167D02*
X11568405Y-13691643D01*
X11587452Y-13663071D01*
X11596976Y-13644024D01*
X11606500Y-13615452D01*
X11616024Y-13567833D01*
X11616024Y-13529738D01*
X11606500Y-13482119D01*
X11596976Y-13453548D01*
X11587452Y-13434500D01*
X11568405Y-13405928D01*
X11558881Y-13396405D01*
D19*
X6466500Y-13733500D02*
X6596500Y-13863500D01*
X6596500Y-13733500D02*
X6466500Y-13863500D01*
X6577462Y-13844462D02*
X6577462Y-13752538D01*
X6485538Y-13752538D01*
X6485538Y-13844462D01*
X6577462Y-13844462D01*
D11*
X6958881Y-13888976D02*
X6844595Y-13888976D01*
X6901738Y-13888976D02*
X6901738Y-13688976D01*
X6882690Y-13717548D01*
X6863643Y-13736595D01*
X6844595Y-13746119D01*
X7044595Y-13869928D02*
X7054119Y-13879452D01*
X7044595Y-13888976D01*
X7035071Y-13879452D01*
X7044595Y-13869928D01*
X7044595Y-13888976D01*
X7120786Y-13688976D02*
X7244595Y-13688976D01*
X7177928Y-13765167D01*
X7206500Y-13765167D01*
X7225548Y-13774690D01*
X7235071Y-13784214D01*
X7244595Y-13803262D01*
X7244595Y-13850881D01*
X7235071Y-13869928D01*
X7225548Y-13879452D01*
X7206500Y-13888976D01*
X7149357Y-13888976D01*
X7130309Y-13879452D01*
X7120786Y-13869928D01*
X7368405Y-13688976D02*
X7387452Y-13688976D01*
X7406500Y-13698500D01*
X7416024Y-13708024D01*
X7425548Y-13727071D01*
X7435071Y-13765167D01*
X7435071Y-13812786D01*
X7425548Y-13850881D01*
X7416024Y-13869928D01*
X7406500Y-13879452D01*
X7387452Y-13888976D01*
X7368405Y-13888976D01*
X7349357Y-13879452D01*
X7339833Y-13869928D01*
X7330309Y-13850881D01*
X7320786Y-13812786D01*
X7320786Y-13765167D01*
X7330309Y-13727071D01*
X7339833Y-13708024D01*
X7349357Y-13698500D01*
X7368405Y-13688976D01*
X7558881Y-13688976D02*
X7577928Y-13688976D01*
X7596976Y-13698500D01*
X7606500Y-13708024D01*
X7616024Y-13727071D01*
X7625548Y-13765167D01*
X7625548Y-13812786D01*
X7616024Y-13850881D01*
X7606500Y-13869928D01*
X7596976Y-13879452D01*
X7577928Y-13888976D01*
X7558881Y-13888976D01*
X7539833Y-13879452D01*
X7530309Y-13869928D01*
X7520786Y-13850881D01*
X7511262Y-13812786D01*
X7511262Y-13765167D01*
X7520786Y-13727071D01*
X7530309Y-13708024D01*
X7539833Y-13698500D01*
X7558881Y-13688976D01*
X7711262Y-13888976D02*
X7711262Y-13755643D01*
X7711262Y-13774690D02*
X7720786Y-13765167D01*
X7739833Y-13755643D01*
X7768405Y-13755643D01*
X7787452Y-13765167D01*
X7796976Y-13784214D01*
X7796976Y-13888976D01*
X7796976Y-13784214D02*
X7806500Y-13765167D01*
X7825548Y-13755643D01*
X7854119Y-13755643D01*
X7873167Y-13765167D01*
X7882690Y-13784214D01*
X7882690Y-13888976D01*
X7977928Y-13888976D02*
X7977928Y-13755643D01*
X7977928Y-13774690D02*
X7987452Y-13765167D01*
X8006500Y-13755643D01*
X8035071Y-13755643D01*
X8054119Y-13765167D01*
X8063643Y-13784214D01*
X8063643Y-13888976D01*
X8063643Y-13784214D02*
X8073167Y-13765167D01*
X8092214Y-13755643D01*
X8120786Y-13755643D01*
X8139833Y-13765167D01*
X8149357Y-13784214D01*
X8149357Y-13888976D01*
X8539833Y-13679452D02*
X8368405Y-13936595D01*
X8796976Y-13688976D02*
X8816024Y-13688976D01*
X8835071Y-13698500D01*
X8844595Y-13708024D01*
X8854119Y-13727071D01*
X8863643Y-13765167D01*
X8863643Y-13812786D01*
X8854119Y-13850881D01*
X8844595Y-13869928D01*
X8835071Y-13879452D01*
X8816024Y-13888976D01*
X8796976Y-13888976D01*
X8777929Y-13879452D01*
X8768405Y-13869928D01*
X8758881Y-13850881D01*
X8749357Y-13812786D01*
X8749357Y-13765167D01*
X8758881Y-13727071D01*
X8768405Y-13708024D01*
X8777929Y-13698500D01*
X8796976Y-13688976D01*
X8949357Y-13869928D02*
X8958881Y-13879452D01*
X8949357Y-13888976D01*
X8939833Y-13879452D01*
X8949357Y-13869928D01*
X8949357Y-13888976D01*
X9082690Y-13688976D02*
X9101738Y-13688976D01*
X9120786Y-13698500D01*
X9130310Y-13708024D01*
X9139833Y-13727071D01*
X9149357Y-13765167D01*
X9149357Y-13812786D01*
X9139833Y-13850881D01*
X9130310Y-13869928D01*
X9120786Y-13879452D01*
X9101738Y-13888976D01*
X9082690Y-13888976D01*
X9063643Y-13879452D01*
X9054119Y-13869928D01*
X9044595Y-13850881D01*
X9035071Y-13812786D01*
X9035071Y-13765167D01*
X9044595Y-13727071D01*
X9054119Y-13708024D01*
X9063643Y-13698500D01*
X9082690Y-13688976D01*
X9330310Y-13688976D02*
X9235071Y-13688976D01*
X9225548Y-13784214D01*
X9235071Y-13774690D01*
X9254119Y-13765167D01*
X9301738Y-13765167D01*
X9320786Y-13774690D01*
X9330310Y-13784214D01*
X9339833Y-13803262D01*
X9339833Y-13850881D01*
X9330310Y-13869928D01*
X9320786Y-13879452D01*
X9301738Y-13888976D01*
X9254119Y-13888976D01*
X9235071Y-13879452D01*
X9225548Y-13869928D01*
X9530310Y-13888976D02*
X9416024Y-13888976D01*
X9473167Y-13888976D02*
X9473167Y-13688976D01*
X9454119Y-13717548D01*
X9435071Y-13736595D01*
X9416024Y-13746119D01*
X9606500Y-13708024D02*
X9616024Y-13698500D01*
X9635071Y-13688976D01*
X9682690Y-13688976D01*
X9701738Y-13698500D01*
X9711262Y-13708024D01*
X9720786Y-13727071D01*
X9720786Y-13746119D01*
X9711262Y-13774690D01*
X9596976Y-13888976D01*
X9720786Y-13888976D01*
X9796976Y-13688976D02*
X9796976Y-13727071D01*
X9873167Y-13688976D02*
X9873167Y-13727071D01*
X10168405Y-13965167D02*
X10158881Y-13955643D01*
X10139833Y-13927071D01*
X10130310Y-13908024D01*
X10120786Y-13879452D01*
X10111262Y-13831833D01*
X10111262Y-13793738D01*
X10120786Y-13746119D01*
X10130310Y-13717548D01*
X10139833Y-13698500D01*
X10158881Y-13669928D01*
X10168405Y-13660405D01*
X10330310Y-13755643D02*
X10330310Y-13888976D01*
X10282690Y-13679452D02*
X10235071Y-13822309D01*
X10358881Y-13822309D01*
X10587452Y-13888976D02*
X10587452Y-13688976D01*
X10673167Y-13888976D02*
X10673167Y-13784214D01*
X10663643Y-13765167D01*
X10644595Y-13755643D01*
X10616024Y-13755643D01*
X10596976Y-13765167D01*
X10587452Y-13774690D01*
X10796976Y-13888976D02*
X10777929Y-13879452D01*
X10768405Y-13869928D01*
X10758881Y-13850881D01*
X10758881Y-13793738D01*
X10768405Y-13774690D01*
X10777929Y-13765167D01*
X10796976Y-13755643D01*
X10825548Y-13755643D01*
X10844595Y-13765167D01*
X10854119Y-13774690D01*
X10863643Y-13793738D01*
X10863643Y-13850881D01*
X10854119Y-13869928D01*
X10844595Y-13879452D01*
X10825548Y-13888976D01*
X10796976Y-13888976D01*
X10977929Y-13888976D02*
X10958881Y-13879452D01*
X10949357Y-13860405D01*
X10949357Y-13688976D01*
X11130310Y-13879452D02*
X11111262Y-13888976D01*
X11073167Y-13888976D01*
X11054119Y-13879452D01*
X11044595Y-13860405D01*
X11044595Y-13784214D01*
X11054119Y-13765167D01*
X11073167Y-13755643D01*
X11111262Y-13755643D01*
X11130310Y-13765167D01*
X11139833Y-13784214D01*
X11139833Y-13803262D01*
X11044595Y-13822309D01*
X11216024Y-13879452D02*
X11235071Y-13888976D01*
X11273167Y-13888976D01*
X11292214Y-13879452D01*
X11301738Y-13860405D01*
X11301738Y-13850881D01*
X11292214Y-13831833D01*
X11273167Y-13822309D01*
X11244595Y-13822309D01*
X11225548Y-13812786D01*
X11216024Y-13793738D01*
X11216024Y-13784214D01*
X11225548Y-13765167D01*
X11244595Y-13755643D01*
X11273167Y-13755643D01*
X11292214Y-13765167D01*
X11368405Y-13965167D02*
X11377928Y-13955643D01*
X11396976Y-13927071D01*
X11406500Y-13908024D01*
X11416024Y-13879452D01*
X11425548Y-13831833D01*
X11425548Y-13793738D01*
X11416024Y-13746119D01*
X11406500Y-13717548D01*
X11396976Y-13698500D01*
X11377928Y-13669928D01*
X11368405Y-13660405D01*
M02*
