%FSLAX45Y45*%
G04 Gerber Fmt 4.5, Leading zero omitted, Abs format (unit mm)*
G04 Created by KiCad (PCBNEW (6.0.1)) date 2022-01-24 13:46:20*
%MOMM*%
%LPD*%
G01*
G04 APERTURE LIST*
%TA.AperFunction,Profile*%
%ADD10C,0.150000*%
%TD*%
%ADD11C,0.200000*%
G04 APERTURE END LIST*
D10*
X6604000Y-11303000D02*
X6604000Y-3937000D01*
X7135000Y-10922000D02*
G75*
G03*
X7135000Y-10922000I-150000J0D01*
G01*
X21613000Y-10922000D02*
G75*
G03*
X21613000Y-10922000I-150000J0D01*
G01*
X7135000Y-4318000D02*
G75*
G03*
X7135000Y-4318000I-150000J0D01*
G01*
X21844000Y-3937000D02*
X21844000Y-11303000D01*
X21613000Y-4318000D02*
G75*
G03*
X21613000Y-4318000I-150000J0D01*
G01*
X21844000Y-11303000D02*
X6604000Y-11303000D01*
X6604000Y-3937000D02*
X21844000Y-3937000D01*
D11*
X6854119Y-11620976D02*
X6854119Y-11420976D01*
X6901738Y-11420976D01*
X6930309Y-11430500D01*
X6949357Y-11449548D01*
X6958881Y-11468595D01*
X6968405Y-11506690D01*
X6968405Y-11535262D01*
X6958881Y-11573357D01*
X6949357Y-11592405D01*
X6930309Y-11611452D01*
X6901738Y-11620976D01*
X6854119Y-11620976D01*
X7054119Y-11620976D02*
X7054119Y-11487643D01*
X7054119Y-11525738D02*
X7063643Y-11506690D01*
X7073167Y-11497167D01*
X7092214Y-11487643D01*
X7111262Y-11487643D01*
X7177928Y-11620976D02*
X7177928Y-11487643D01*
X7177928Y-11420976D02*
X7168405Y-11430500D01*
X7177928Y-11440024D01*
X7187452Y-11430500D01*
X7177928Y-11420976D01*
X7177928Y-11440024D01*
X7301738Y-11620976D02*
X7282690Y-11611452D01*
X7273167Y-11592405D01*
X7273167Y-11420976D01*
X7406500Y-11620976D02*
X7387452Y-11611452D01*
X7377928Y-11592405D01*
X7377928Y-11420976D01*
X7635071Y-11620976D02*
X7635071Y-11420976D01*
X7701738Y-11563833D01*
X7768405Y-11420976D01*
X7768405Y-11620976D01*
X7949357Y-11620976D02*
X7949357Y-11516214D01*
X7939833Y-11497167D01*
X7920786Y-11487643D01*
X7882690Y-11487643D01*
X7863643Y-11497167D01*
X7949357Y-11611452D02*
X7930309Y-11620976D01*
X7882690Y-11620976D01*
X7863643Y-11611452D01*
X7854119Y-11592405D01*
X7854119Y-11573357D01*
X7863643Y-11554309D01*
X7882690Y-11544786D01*
X7930309Y-11544786D01*
X7949357Y-11535262D01*
X8044595Y-11487643D02*
X8044595Y-11687643D01*
X8044595Y-11497167D02*
X8063643Y-11487643D01*
X8101738Y-11487643D01*
X8120786Y-11497167D01*
X8130309Y-11506690D01*
X8139833Y-11525738D01*
X8139833Y-11582881D01*
X8130309Y-11601928D01*
X8120786Y-11611452D01*
X8101738Y-11620976D01*
X8063643Y-11620976D01*
X8044595Y-11611452D01*
X8225548Y-11601928D02*
X8235071Y-11611452D01*
X8225548Y-11620976D01*
X8216024Y-11611452D01*
X8225548Y-11601928D01*
X8225548Y-11620976D01*
X8225548Y-11497167D02*
X8235071Y-11506690D01*
X8225548Y-11516214D01*
X8216024Y-11506690D01*
X8225548Y-11497167D01*
X8225548Y-11516214D01*
M02*
