%TF.GenerationSoftware,KiCad,Pcbnew,(5.1.6)-1*%
%TF.CreationDate,2020-09-25T09:21:30-04:00*%
%TF.ProjectId,MagneticEndStop,4d61676e-6574-4696-9345-6e6453746f70,rev?*%
%TF.SameCoordinates,Original*%
%TF.FileFunction,Soldermask,Bot*%
%TF.FilePolarity,Negative*%
%FSLAX46Y46*%
G04 Gerber Fmt 4.6, Leading zero omitted, Abs format (unit mm)*
G04 Created by KiCad (PCBNEW (5.1.6)-1) date 2020-09-25 09:21:30*
%MOMM*%
%LPD*%
G01*
G04 APERTURE LIST*
%TA.AperFunction,Profile*%
%ADD10C,0.050000*%
%TD*%
%ADD11R,2.000000X0.900000*%
%ADD12O,1.800000X1.800000*%
%ADD13R,1.800000X1.800000*%
G04 APERTURE END LIST*
D10*
X179070000Y-26035000D02*
X173990000Y-26035000D01*
X179070000Y-36195000D02*
X179070000Y-26035000D01*
X173990000Y-36195000D02*
X179070000Y-36195000D01*
X173990000Y-26035000D02*
X157480000Y-26035000D01*
X157480000Y-36195000D02*
X173990000Y-36195000D01*
X157480000Y-26035000D02*
X157480000Y-36195000D01*
D11*
%TO.C,U1*%
X172339000Y-31115000D03*
X169339000Y-30165000D03*
X169339000Y-32065000D03*
%TD*%
%TO.C,R1*%
G36*
G01*
X164494738Y-31143000D02*
X165451262Y-31143000D01*
G75*
G02*
X165723000Y-31414738I0J-271738D01*
G01*
X165723000Y-32121262D01*
G75*
G02*
X165451262Y-32393000I-271738J0D01*
G01*
X164494738Y-32393000D01*
G75*
G02*
X164223000Y-32121262I0J271738D01*
G01*
X164223000Y-31414738D01*
G75*
G02*
X164494738Y-31143000I271738J0D01*
G01*
G37*
G36*
G01*
X164494738Y-29093000D02*
X165451262Y-29093000D01*
G75*
G02*
X165723000Y-29364738I0J-271738D01*
G01*
X165723000Y-30071262D01*
G75*
G02*
X165451262Y-30343000I-271738J0D01*
G01*
X164494738Y-30343000D01*
G75*
G02*
X164223000Y-30071262I0J271738D01*
G01*
X164223000Y-29364738D01*
G75*
G02*
X164494738Y-29093000I271738J0D01*
G01*
G37*
%TD*%
D12*
%TO.C,J1*%
X160020000Y-33655000D03*
X160020000Y-31115000D03*
D13*
X160020000Y-28575000D03*
%TD*%
%TO.C,C1*%
G36*
G01*
X166414400Y-34869862D02*
X166414400Y-33913338D01*
G75*
G02*
X166686138Y-33641600I271738J0D01*
G01*
X167392662Y-33641600D01*
G75*
G02*
X167664400Y-33913338I0J-271738D01*
G01*
X167664400Y-34869862D01*
G75*
G02*
X167392662Y-35141600I-271738J0D01*
G01*
X166686138Y-35141600D01*
G75*
G02*
X166414400Y-34869862I0J271738D01*
G01*
G37*
G36*
G01*
X164364400Y-34869862D02*
X164364400Y-33913338D01*
G75*
G02*
X164636138Y-33641600I271738J0D01*
G01*
X165342662Y-33641600D01*
G75*
G02*
X165614400Y-33913338I0J-271738D01*
G01*
X165614400Y-34869862D01*
G75*
G02*
X165342662Y-35141600I-271738J0D01*
G01*
X164636138Y-35141600D01*
G75*
G02*
X164364400Y-34869862I0J271738D01*
G01*
G37*
%TD*%
M02*
